<svg xmlns="http://www.w3.org/2000/svg" viewBox="0 0 1503 1504"><path fill="#1d1d1d" d="M173.215 689.542L750.511 73.928l676.884 634.752-577.296 615.614z"/><path d="M1299.3 1265.7c-283.7 302.6-759 317.8-1061.5 34.1S-80 540.8 203.7 238.3s759-317.8 1061.5-34.1 317.9 758.9 34.1 1061.5zM391.8 824.5l-106.4-99.7c-22.3-20.9-33.4-31.3-36.1-41.9-2.8-11.6 0-23.6 7.6-32.6 7-8.4 21.7-12.9 50.8-21.9l696.4-216.5c29.6-9.2 44.5-13.7 55-10.7 11.3 3.3 20.5 11.9 24.5 23 3.7 10.4.2 25.4-7.1 55.6l-34.3 144.8-.2.8c-7.7 32.4-11.7 48.8-19.4 62.5-8.5 15.1-20.6 28-35.1 37.4-13.3 8.8-29.5 13.9-61.8 23.8L559.3 863.4l-1 .3c-32 9.9-48.3 14.9-64.5 14.9-17.6.2-34.8-3.8-50.5-11.7-13.9-7.2-26.5-19-51.5-42.4zm268.5 251.8l152.3 142.8c22.5 21.1 33.8 31.7 44.7 33.5 11.7 2.1 23.7-1.5 32.2-9.8 7.5-7.3 10.9-21.7 17.4-49.9.3-1 .4-1.9.7-2.9l46.1-202.1.5-2.3c6.3-28.2 9.5-42.4 5.8-52.5-4-11.1-13-19.6-24.4-22.8-10.4-2.9-25 1.4-54.3 10.1L683 979.6l-.7.2c-29.2 8.7-43.7 13.1-50.7 21.4-7.6 9.1-10.6 21.2-7.7 32.7 2.6 10.6 13.9 21.2 36.4 42.4z" fill-rule="evenodd" clip-rule="evenodd"/></svg>