<svg data-name="Layer 1" xmlns="http://www.w3.org/2000/svg" viewBox="0 0 511.9 512"><path fill="#fff" stroke="#000" stroke-miterlimit="10" d="M102 67h325v367H102z"/><path d="M320.8 285.8c-8.9-8-21.1-11.9-37-11.9h-92.4v93.4h92.4c15.9 0 28.3-4.1 37-12.4s13.2-19.9 13.2-35c.1-14.8-4.3-26.1-13.2-34.1zM308.1 225.6c8.4-7.2 12.5-17.4 12.5-30.8 0-15.1-3.8-25.7-11.3-31.8s-18.4-9.2-32.6-9.2h-85.3v82.5h85.3c12.6 0 23.1-3.5 31.4-10.7z" fill="#5e3b7f"/><path d="M426.7 0H85.3A85.57 85.57 0 000 85.3v341.3c0 47 38.4 85.4 85.3 85.4h341.3a85.57 85.57 0 0085.3-85.3V85.3C512 38.4 473.6 0 426.7 0zm-46.6 359.5a66.53 66.53 0 01-19.7 26.4c-9 7.4-20.3 13.2-34.3 17.6s-30.5 6.5-49.8 6.5H139.1V111.3h145.1q40.2 0 64.4 18.4c16.1 12.3 24.3 30.8 24.3 55.6 0 15.1-3.7 27.9-11 38.7s-17.9 19-31.6 24.9v.8c18.4 3.9 32.4 12.6 41.8 26.1s14.2 30.5 14.2 50.9a84.76 84.76 0 01-6.2 32.8z" fill="#5e3b7f"/></svg>