<svg width="288" height="288" version="1.1" xmlns="http://www.w3.org/2000/svg"><path fill="rgb(0,0,0)" stroke="rgb(0,0,0)" stroke-width="1" opacity="0" d="M 0 0 L 53 0.5 L 1 51.5 L 0.5 54 L 0 0 Z "></path><path fill="rgb(0,0,0)" stroke="rgb(0,0,0)" stroke-width="1" opacity="0" d="M 61.5 0 L 232 0.5 L 222.5 5 L 209 18.5 L 209 20.5 L 267.5 79 L 269.5 79 L 282 66.5 Q 286.3 62.3 287.5 55 L 288 227.5 L 287 227.5 L 268.5 208 L 266.5 208 L 246.5 228 L 241.5 228 L 237 224.5 L 236 217.5 L 256 195.5 L 243.5 184 L 226 200.5 Q 226.8 202.8 224.5 202 L 219.5 204 L 214 200.5 L 212 195.5 L 214 190 L 220 185.5 Q 219.3 183.3 221.5 184 L 232 171.5 L 215.5 156 L 156 216.5 L 228 287.5 L 13.5 288 L 13.5 287 L 78 266 L 78 264.5 L 23.5 210 Q 21.3 209.3 22 211.5 L 0.5 275 L 0 58.5 L 1 58.5 L 1 60.5 L 53.5 114 Q 55.8 113.3 55 115.5 L 70.5 131 L 73.5 132 L 126 79.5 L 126 78 L 128 78 L 128 76 L 130 76 Q 128.9 73.3 131.5 74 L 133 71.5 L 129 69 L 129 67.5 L 120.5 59 L 117.5 57 L 115.5 56 L 96.5 75 L 89.5 76 Q 84.6 73.8 84 67.5 L 86 63.5 L 105 44.5 L 101.5 40 L 99 38.5 L 93.5 32 L 86 37.5 L 84.5 40 L 81 42.5 L 79.5 45 L 75 48.5 Q 75.8 50.8 73.5 50 Q 72.3 53.3 66.5 52 L 62 48.5 L 61 41.5 L 81 19.5 L 69.5 8 L 68 8 L 64.5 3 L 61.5 0 Z M 197 31 L 185 43 L 186 46 L 192 51 L 194 54 L 198 57 L 200 60 L 209 68 L 210 68 L 215 74 Q 217 73 216 76 L 218 76 L 218 78 L 220 78 L 220 80 L 240 99 L 246 103 L 257 91 L 197 31 Z M 173 55 L 32 197 L 57 220 L 197 79 L 173 55 Z M 208 91 L 197 102 Q 198 104 196 103 L 185 114 L 185 115 L 184 115 L 168 131 Q 169 133 167 132 L 143 156 L 143 157 L 142 157 L 127 172 Q 128 174 126 173 L 115 184 L 115 185 L 109 190 Q 110 192 108 191 L 104 196 L 98 201 L 96 204 L 94 205 L 89 211 L 80 219 Q 81 221 79 220 L 72 228 L 70 229 L 68 233 L 93 256 L 233 115 L 210 91 L 208 91 Z "></path><path fill="rgb(0,0,0)" stroke="rgb(0,0,0)" stroke-width="1" opacity="0" d="M 245.5 0 L 288 0 L 288 42.5 L 287 42.5 L 284 34.5 L 271.5 21 L 269 19.5 L 261.5 11 L 252.5 3 L 245.5 1 L 245.5 0 Z "></path><path fill="rgb(0,0,0)" stroke="rgb(0,0,0)" stroke-width="1" opacity="0" d="M 287.5 236 L 288 288 L 236 287.5 L 286 238.5 L 287.5 236 Z "></path><path fill="rgb(0,0,0)" stroke="rgb(0,0,0)" stroke-width="1" opacity="0" d="M 0.5 284 L 3.5 288 Q -2.4 289.6 0.5 284 Z "></path><path fill="rgb(255,255,255)" stroke="rgb(255,255,255)" stroke-width="1" opacity="0.4745098039215686" d="M 58.5 0 L 60.5 0 L 68 6.5 Q 67.3 8.8 69.5 8 L 81 20.5 L 62 38.5 L 80 19.5 L 60.5 1 L 58.5 1 L 58.5 0 Z "></path><path fill="rgb(255,255,255)" stroke="rgb(255,255,255)" stroke-width="1" opacity="0.4745098039215686" d="M 232.5 0 L 236 0.5 L 232.5 1 L 232.5 0 Z "></path><path fill="rgb(255,255,255)" stroke="rgb(255,255,255)" stroke-width="1" opacity="0.4745098039215686" d="M 241.5 0 L 245 0.5 L 241.5 1 L 241.5 0 Z "></path><path fill="rgb(255,255,255)" stroke="rgb(255,255,255)" stroke-width="1" opacity="0.4745098039215686" d="M 51.5 1 L 2 51.5 L 1.5 53 L 1 51.5 L 51.5 1 Z "></path><path fill="rgb(255,255,255)" stroke="rgb(255,255,255)" stroke-width="1" opacity="0.4745098039215686" d="M 229.5 1 L 231 1.5 Q 217.2 7.3 209.5 19 L 222.5 5 L 229.5 1 Z "></path><path fill="rgb(255,255,255)" stroke="rgb(255,255,255)" stroke-width="1" opacity="0.4745098039215686" d="M 246.5 1 L 250 2.5 L 248.5 2 Q 245.5 2.5 246.5 1 Z "></path><path fill="rgb(255,255,255)" stroke="rgb(255,255,255)" stroke-width="1" opacity="0.4745098039215686" d="M 251.5 3 L 269 18.5 L 270.5 21 L 281 30.5 L 284 34.5 L 253.5 5 L 251.5 3 Z "></path><path fill="rgb(255,255,255)" stroke="rgb(255,255,255)" stroke-width="1" opacity="0.4745098039215686" d="M 209.5 20 L 267.5 79 L 209.5 20 Z "></path><path fill="rgb(255,255,255)" stroke="rgb(255,255,255)" stroke-width="1" opacity="0.4745098039215686" d="M 196.5 31 L 257 90.5 L 245.5 103 L 239.5 99 L 220 79.5 L 220 78 L 218 78 L 218 76 L 216 76 Q 217.1 73.3 214.5 74 L 210 68 L 208.5 68 L 200 59.5 L 198 56.5 L 194 53.5 L 192 50.5 L 186 45.5 L 185 42.5 L 196.5 31 Z M 197 32 L 186 44 L 246 102 L 256 91 L 197 32 Z "></path><path fill="rgb(255,255,255)" stroke="rgb(255,255,255)" stroke-width="1" opacity="0.4745098039215686" d="M 92.5 32 L 99 37.5 L 100.5 40 L 104 42.5 L 105 44.5 L 86 63.5 L 84.5 67 L 84 65.5 L 104 44.5 L 93.5 33 L 72.5 52 L 73.5 50 Q 75.8 50.8 75 48.5 L 81 43.5 L 83.5 40 L 86 38.5 L 90.5 33 L 92.5 32 Z "></path><path fill="rgb(255,255,255)" stroke="rgb(255,255,255)" stroke-width="1" opacity="0.4745098039215686" d="M 284.5 36 L 286 38.5 L 285 38.5 L 284.5 36 Z "></path><path fill="rgb(255,255,255)" stroke="rgb(255,255,255)" stroke-width="1" opacity="0.4745098039215686" d="M 61.5 40 L 61 41.5 Q 59.9 49.1 64.5 51 L 66 51.5 L 64.5 52 Q 58.9 50.1 60 41.5 L 61.5 40 Z "></path><path fill="rgb(255,255,255)" stroke="rgb(255,255,255)" stroke-width="1" opacity="0.4745098039215686" d="M 287.5 43 L 288 47.5 L 287 47.5 L 287.5 43 Z "></path><path fill="rgb(255,255,255)" stroke="rgb(255,255,255)" stroke-width="1" opacity="0.4745098039215686" d="M 287.5 50 L 288 54.5 L 287 54.5 L 287.5 50 Z "></path><path fill="rgb(255,255,255)" stroke="rgb(255,255,255)" stroke-width="1" opacity="0.4745098039215686" d="M 67.5 52 L 71 52.5 L 67.5 53 L 67.5 52 Z "></path><path fill="rgb(255,255,255)" stroke="rgb(255,255,255)" stroke-width="1" opacity="0.4745098039215686" d="M 0.5 54 L 1 57.5 L 0 57.5 L 0.5 54 Z "></path><path fill="rgb(255,255,255)" stroke="rgb(255,255,255)" stroke-width="1" opacity="0.4745098039215686" d="M 172.5 55 L 197 78.5 L 56.5 220 L 32 196.5 L 172.5 55 Z M 173 56 L 33 197 L 57 219 L 196 79 L 173 56 Z "></path><path fill="rgb(255,255,255)" stroke="rgb(255,255,255)" stroke-width="1" opacity="0.4745098039215686" d="M 115.5 56 L 119 57 Q 117.9 59.7 120.5 59 L 129 67.5 L 129 69 L 133 71.5 L 131.5 74 L 130 74 L 130 76 L 128 76 L 128 78 Q 125.3 76.9 126 79.5 L 72.5 132 L 55 115.5 Q 55.8 113.3 53.5 114 L 1 59.5 L 2 59.5 L 72.5 131 L 112 92.5 L 131 71.5 L 115.5 57 L 96.5 76 L 90.5 77 L 90.5 76 L 96.5 75 L 115.5 56 Z "></path><path fill="rgb(255,255,255)" stroke="rgb(255,255,255)" stroke-width="1" opacity="0.4745098039215686" d="M 285.5 59 L 286 60.5 Q 279.5 71.5 269.5 79 L 281 66.5 L 285.5 59 Z "></path><path fill="rgb(255,255,255)" stroke="rgb(255,255,255)" stroke-width="1" opacity="0.4745098039215686" d="M 84.5 69 Q 84.9 74.1 89 75.5 L 87.5 75 Q 85.3 75.8 86 73.5 Q 82.9 72.4 84.5 69 Z "></path><path fill="rgb(255,255,255)" stroke="rgb(255,255,255)" stroke-width="1" opacity="0.4745098039215686" d="M 207.5 91 L 209.5 91 L 233 114.5 L 92.5 256 L 68 232.5 L 69.5 229 L 72 227.5 L 78.5 220 Q 80.8 220.8 80 218.5 L 89 211 L 93.5 205 L 96 203.5 L 98 200.5 L 104 196 L 107.5 191 Q 109.8 191.8 109 189.5 L 115 185 L 115 183.5 L 125.5 173 Q 127.8 173.8 127 171.5 L 141.5 157 L 143 157 L 143 155.5 L 166.5 132 Q 168.8 132.8 168 130.5 L 183.5 115 L 185 115 L 185 113.5 L 195.5 103 Q 197.8 103.8 197 101.5 L 207.5 91 Z M 209 92 L 69 233 L 93 255 L 232 115 L 209 92 Z "></path><path fill="rgb(255,255,255)" stroke="rgb(255,255,255)" stroke-width="1" opacity="0.4745098039215686" d="M 215.5 156 L 232 171.5 L 221.5 184 Q 219.3 183.3 220 185.5 L 214.5 190 L 231 172.5 L 216.5 157 L 157 215.5 L 226.5 286 L 231 287.5 L 228.5 288 L 156 216.5 L 215.5 156 Z "></path><path fill="rgb(255,255,255)" stroke="rgb(255,255,255)" stroke-width="1" opacity="0.4745098039215686" d="M 243.5 184 L 256 195.5 L 237.5 215 L 255 196.5 L 244.5 185 L 226.5 202 L 226 200.5 L 243.5 184 Z "></path><path fill="rgb(255,255,255)" stroke="rgb(255,255,255)" stroke-width="1" opacity="0.4745098039215686" d="M 213.5 191 L 213 192.5 L 212.5 195 L 212 192.5 L 213.5 191 Z "></path><path fill="rgb(255,255,255)" stroke="rgb(255,255,255)" stroke-width="1" opacity="0.4745098039215686" d="M 212.5 197 L 215.5 202 L 219 203.5 L 217.5 204 L 213 200.5 L 212.5 197 Z "></path><path fill="rgb(255,255,255)" stroke="rgb(255,255,255)" stroke-width="1" opacity="0.4745098039215686" d="M 224.5 202 L 223.5 204 L 221 203.5 L 224.5 202 Z "></path><path fill="rgb(255,255,255)" stroke="rgb(255,255,255)" stroke-width="1" opacity="0.4745098039215686" d="M 266.5 208 L 247.5 228 L 266.5 208 Z "></path><path fill="rgb(255,255,255)" stroke="rgb(255,255,255)" stroke-width="1" opacity="0.4745098039215686" d="M 268.5 208 L 287 226.5 L 288 229.5 L 287 229.5 L 286 226.5 L 268.5 208 Z "></path><path fill="rgb(255,255,255)" stroke="rgb(255,255,255)" stroke-width="1" opacity="0.4745098039215686" d="M 22.5 210 L 78 264.5 Q 78.8 266.8 76.5 266 L 10.5 288 L 10.5 287 L 75.5 266 L 77 264.5 L 22.5 210 Z "></path><path fill="rgb(255,255,255)" stroke="rgb(255,255,255)" stroke-width="1" opacity="0.4745098039215686" d="M 236.5 216 L 236 217.5 Q 234.7 222.3 237 223.5 L 235 222.5 Q 233.8 217.3 236.5 216 Z "></path><path fill="rgb(255,255,255)" stroke="rgb(255,255,255)" stroke-width="1" opacity="0.4745098039215686" d="M 237.5 225 L 241 227.5 L 239.5 227 L 237.5 225 Z "></path><path fill="rgb(255,255,255)" stroke="rgb(255,255,255)" stroke-width="1" opacity="0.4745098039215686" d="M 287.5 233 L 288 235.5 L 238.5 286 L 233.5 288 L 233.5 287 L 238.5 285 L 285 238.5 L 287.5 233 Z "></path><path fill="rgb(255,255,255)" stroke="rgb(255,255,255)" stroke-width="1" opacity="0.4745098039215686" d="M 0.5 282 L 4.5 287 L 7 287.5 L 4.5 288 L 0 283.5 L 0.5 282 Z "></path><path fill="rgb(255,255,255)" stroke="rgb(255,255,255)" stroke-width="1" opacity="0.996078431372549" d="M 55.5 0 L 58 0.5 L 55.5 1 L 55.5 0 Z "></path><path fill="rgb(255,255,255)" stroke="rgb(255,255,255)" stroke-width="1" opacity="0.996078431372549" d="M 52.5 1 L 47.5 7 L 52.5 1 Z "></path><path fill="rgb(255,255,255)" stroke="rgb(255,255,255)" stroke-width="1" opacity="0.996078431372549" d="M 253.5 5 L 254.5 7 L 253.5 5 Z "></path><path fill="rgb(255,255,255)" stroke="rgb(255,255,255)" stroke-width="1" opacity="0.996078431372549" d="M 222.5 6 L 210 19.5 L 268.5 78 L 281 66.5 L 268.5 79 L 209 19.5 L 222.5 6 Z "></path><path fill="rgb(255,255,255)" stroke="rgb(255,255,255)" stroke-width="1" opacity="0.996078431372549" d="M 45.5 8 L 2.5 52 L 45.5 8 Z "></path><path fill="rgb(255,255,255)" stroke="rgb(255,255,255)" stroke-width="1" opacity="0.996078431372549" d="M 70.5 10 L 79.5 20 L 70.5 10 Z "></path><path fill="rgb(255,255,255)" stroke="rgb(255,255,255)" stroke-width="1" opacity="0.996078431372549" d="M 78.5 21 L 69.5 31 L 78.5 21 Z "></path><path fill="rgb(255,255,255)" stroke="rgb(255,255,255)" stroke-width="1" opacity="0.996078431372549" d="M 197.5 32 L 256 91.5 L 245 101.5 L 255 90.5 L 197.5 32 Z "></path><path fill="rgb(255,255,255)" stroke="rgb(255,255,255)" stroke-width="1" opacity="0.996078431372549" d="M 93.5 33 L 95.5 36 L 93.5 33 Z "></path><path fill="rgb(255,255,255)" stroke="rgb(255,255,255)" stroke-width="1" opacity="0.996078431372549" d="M 195.5 33 L 191.5 38 L 195.5 33 Z "></path><path fill="rgb(255,255,255)" stroke="rgb(255,255,255)" stroke-width="1" opacity="0.996078431372549" d="M 282.5 34 L 283.5 36 L 282.5 34 Z "></path><path fill="rgb(255,255,255)" stroke="rgb(255,255,255)" stroke-width="1" opacity="0.996078431372549" d="M 61.5 39 L 60.5 41 L 61.5 39 Z "></path><path fill="rgb(255,255,255)" stroke="rgb(255,255,255)" stroke-width="1" opacity="0.996078431372549" d="M 188.5 40 L 186.5 43 L 188.5 40 Z "></path><path fill="rgb(255,255,255)" stroke="rgb(255,255,255)" stroke-width="1" opacity="0.996078431372549" d="M 103.5 44 L 85.5 63 L 103.5 44 Z "></path><path fill="rgb(255,255,255)" stroke="rgb(255,255,255)" stroke-width="1" opacity="0.996078431372549" d="M 62.5 50 L 63.5 52 L 62.5 50 Z "></path><path fill="rgb(255,255,255)" stroke="rgb(255,255,255)" stroke-width="1" opacity="0.996078431372549" d="M 172.5 56 L 34 195.5 L 56 218.5 L 33 196.5 L 172.5 56 Z "></path><path fill="rgb(255,255,255)" stroke="rgb(255,255,255)" stroke-width="1" opacity="0.996078431372549" d="M 115.5 57 L 97.5 76 L 115.5 57 Z "></path><path fill="rgb(255,255,255)" stroke="rgb(255,255,255)" stroke-width="1" opacity="0.996078431372549" d="M 176.5 59 L 184.5 68 L 176.5 59 Z "></path><path fill="rgb(255,255,255)" stroke="rgb(255,255,255)" stroke-width="1" opacity="0.996078431372549" d="M 283.5 62 L 282.5 64 L 283.5 62 Z "></path><path fill="rgb(255,255,255)" stroke="rgb(255,255,255)" stroke-width="1" opacity="0.996078431372549" d="M 186.5 69 L 187.5 71 L 186.5 69 Z "></path><path fill="rgb(255,255,255)" stroke="rgb(255,255,255)" stroke-width="1" opacity="0.996078431372549" d="M 111.5 92 L 73.5 131 L 111.5 92 Z "></path><path fill="rgb(255,255,255)" stroke="rgb(255,255,255)" stroke-width="1" opacity="0.996078431372549" d="M 209.5 92 L 216.5 100 L 209.5 92 Z "></path><path fill="rgb(255,255,255)" stroke="rgb(255,255,255)" stroke-width="1" opacity="0.996078431372549" d="M 231.5 115 L 92.5 255 L 69 232.5 L 91.5 254 L 231.5 115 Z "></path><path fill="rgb(255,255,255)" stroke="rgb(255,255,255)" stroke-width="1" opacity="0.996078431372549" d="M 215.5 157 L 231 171.5 L 216.5 158 L 201.5 172 L 215.5 157 Z "></path><path fill="rgb(255,255,255)" stroke="rgb(255,255,255)" stroke-width="1" opacity="0.996078431372549" d="M 199.5 173 L 158 215.5 L 227 285.5 L 157 216.5 L 199.5 173 Z "></path><path fill="rgb(255,255,255)" stroke="rgb(255,255,255)" stroke-width="1" opacity="0.996078431372549" d="M 244.5 185 L 255 196.5 L 247 203.5 L 254 195.5 L 244.5 185 Z "></path><path fill="rgb(255,255,255)" stroke="rgb(255,255,255)" stroke-width="1" opacity="0.996078431372549" d="M 213.5 190 L 212.5 192 L 213.5 190 Z "></path><path fill="rgb(255,255,255)" stroke="rgb(255,255,255)" stroke-width="1" opacity="0.996078431372549" d="M 211.5 194 L 212 196.5 L 211 196.5 L 211.5 194 Z "></path><path fill="rgb(255,255,255)" stroke="rgb(255,255,255)" stroke-width="1" opacity="0.996078431372549" d="M 213.5 201 L 214.5 203 L 213.5 201 Z "></path><path fill="rgb(255,255,255)" stroke="rgb(255,255,255)" stroke-width="1" opacity="0.996078431372549" d="M 245.5 205 L 241.5 210 L 245.5 205 Z "></path><path fill="rgb(255,255,255)" stroke="rgb(255,255,255)" stroke-width="1" opacity="0.996078431372549" d="M 267.5 208 L 285.5 227 L 267.5 209 L 248 227.5 L 267.5 208 Z "></path><path fill="rgb(255,255,255)" stroke="rgb(255,255,255)" stroke-width="1" opacity="0.996078431372549" d="M 22 211 L 23.5 211 L 77 264.5 L 75 265.5 L 76 264.5 L 23.5 212 L 22 212.5 L 22 211 Z "></path><path fill="rgb(255,255,255)" stroke="rgb(255,255,255)" stroke-width="1" opacity="0.996078431372549" d="M 239.5 211 L 237.5 214 L 239.5 211 Z "></path><path fill="rgb(255,255,255)" stroke="rgb(255,255,255)" stroke-width="1" opacity="0.996078431372549" d="M 236.5 215 L 235.5 217 L 236.5 215 Z "></path><path fill="rgb(255,255,255)" stroke="rgb(255,255,255)" stroke-width="1" opacity="0.996078431372549" d="M 235.5 223 L 236.5 225 L 235.5 223 Z "></path><path fill="rgb(255,255,255)" stroke="rgb(255,255,255)" stroke-width="1" opacity="0.996078431372549" d="M 287.5 230 L 288 232.5 L 287 232.5 L 287.5 230 Z "></path><path fill="rgb(255,255,255)" stroke="rgb(255,255,255)" stroke-width="1" opacity="0.996078431372549" d="M 284.5 238 L 238.5 285 L 284.5 238 Z "></path><path fill="rgb(255,255,255)" stroke="rgb(255,255,255)" stroke-width="1" opacity="0.996078431372549" d="M 1.5 283 L 2.5 285 L 1.5 283 Z "></path><path fill="rgb(255,255,255)" stroke="rgb(255,255,255)" stroke-width="1" opacity="1" d="M 238.5 0 L 247.5 2 L 255.5 7 L 282 33.5 Q 288.8 39.7 287 54.5 L 282 64.5 L 268.5 78 L 210 19.5 L 224.5 5 L 229.5 2 L 238.5 0 Z "></path><path fill="rgb(255,255,255)" stroke="rgb(255,255,255)" stroke-width="1" opacity="1" d="M 53.5 1 L 61.5 2 L 80 20.5 L 69 30.5 L 60 40.5 L 60 47.5 L 63.5 52 L 71.5 53 L 92.5 33 L 103 44.5 L 85 62.5 L 83 68.5 L 87.5 76 L 95.5 77 L 116.5 57 L 131 72.5 L 72.5 131 L 3 61.5 Q 0.2 59.8 1 54.5 L 46 8.5 L 46 7 L 53.5 1 Z "></path><path fill="rgb(255,255,255)" stroke="rgb(255,255,255)" stroke-width="1" opacity="1" d="M 196.5 32 L 255 91.5 L 244.5 102 L 186 43.5 L 190.5 38 L 196 33.5 L 196.5 32 Z "></path><path fill="rgb(255,255,255)" stroke="rgb(255,255,255)" stroke-width="1" opacity="1" d="M 173.5 56 L 174 58 Q 176.7 56.9 176 59.5 L 184.5 68 L 186 68 L 187.5 71 L 196 78.5 L 56.5 219 L 34 195.5 L 173.5 56 Z "></path><path fill="rgb(255,255,255)" stroke="rgb(255,255,255)" stroke-width="1" opacity="1" d="M 208.5 92 L 232 114.5 L 91.5 254 L 69 231.5 L 208.5 92 Z "></path><path fill="rgb(255,255,255)" stroke="rgb(255,255,255)" stroke-width="1" opacity="1" d="M 215.5 158 L 231 172.5 L 212 191.5 L 211 196.5 L 214.5 203 L 220.5 205 L 225.5 203 L 243.5 185 L 254 196.5 L 247 205 L 241 209.5 Q 241.8 211.8 239.5 211 L 235 216.5 L 235 223.5 L 237 227 L 242.5 229 L 246.5 229 L 267.5 209 L 287 228.5 L 287 234.5 L 236.5 286 L 229.5 287 L 158 216.5 L 200 173.5 L 200 172 L 201.5 172 L 215.5 158 Z "></path><path fill="rgb(255,255,255)" stroke="rgb(255,255,255)" stroke-width="1" opacity="1" d="M 23.5 212 L 76 264.5 L 74.5 266 L 8.5 288 L 3 286 L 0 279.5 L 17 227.5 L 23.5 212 Z "></path></svg>