<svg data-name="Layer 1" xmlns="http://www.w3.org/2000/svg" viewBox="0 0 511.93 512"><path d="M507.54 401.57l-31.81-31.82-31.81 31.82a15 15 0 11-21.21-21.21l31.81-31.81-21.21-21.21-31.81 31.81A15 15 0 01380.29 338l31.82-31.82-28.21-28.2-106 106L401.5 507.6a15 15 0 0021.21 0l84.83-84.83a15 15 0 000-21.2zM121.021 411.92l250.273-250.273 42.413 42.412-250.274 250.274zM57.423 348.292L307.696 98.019l42.413 42.412L99.835 390.704zM328.903 76.815L350.11 55.61l106.037 106.038-21.206 21.206zM498.63 55.68l-42.56-42.56a45 45 0 00-63.5 0L371.31 34.4l106 106 21.21-21.21a45 45 0 00.11-63.51zM40.25 373.56L.77 492a15 15 0 0019 19l118.42-39.5zM206.86 99.83l-31.81 31.81a15 15 0 11-21.2-21.2l31.81-31.82-21.21-21.2-31.81 31.81A15 15 0 01111.43 68l31.81-31.81L111.43 4.4a15 15 0 00-21.21 0L5.39 89.23a15 15 0 000 21.2L129 234.07l106-106z"/></svg>