<svg width="288" height="288" version="1.1" xmlns="http://www.w3.org/2000/svg"><path fill="rgb(255,255,255)" stroke="rgb(255,255,255)" stroke-width="1" opacity="0.7725490196078432" d="M 52.5 0 L 58 0.5 L 52.5 1 L 52.5 0 Z "></path><path fill="rgb(255,255,255)" stroke="rgb(255,255,255)" stroke-width="1" opacity="0.7725490196078432" d="M 61.5 0 L 66 0.5 L 61.5 1 L 61.5 0 Z "></path><path fill="rgb(255,255,255)" stroke="rgb(255,255,255)" stroke-width="1" opacity="0.7725490196078432" d="M 260.5 1 L 259.5 3 L 260.5 1 Z "></path><path fill="rgb(255,255,255)" stroke="rgb(255,255,255)" stroke-width="1" opacity="0.7725490196078432" d="M 269.5 1 L 286.5 19 L 269.5 1 Z "></path><path fill="rgb(255,255,255)" stroke="rgb(255,255,255)" stroke-width="1" opacity="0.7725490196078432" d="M 92.5 10 L 93.5 12 L 92.5 10 Z "></path><path fill="rgb(255,255,255)" stroke="rgb(255,255,255)" stroke-width="1" opacity="0.7725490196078432" d="M 95.5 12 L 98.5 16 L 95.5 12 Z "></path><path fill="rgb(255,255,255)" stroke="rgb(255,255,255)" stroke-width="1" opacity="0.7725490196078432" d="M 101.5 18 L 104.5 22 L 101.5 18 Z "></path><path fill="rgb(255,255,255)" stroke="rgb(255,255,255)" stroke-width="1" opacity="0.7725490196078432" d="M 43.5 19 L 64.5 41 L 43.5 19 Z "></path><path fill="rgb(255,255,255)" stroke="rgb(255,255,255)" stroke-width="1" opacity="0.7725490196078432" d="M 106.5 24 L 107.5 26 L 106.5 24 Z "></path><path fill="rgb(255,255,255)" stroke="rgb(255,255,255)" stroke-width="1" opacity="0.7725490196078432" d="M 108.5 27 L 109.5 29 L 108.5 27 Z "></path><path fill="rgb(255,255,255)" stroke="rgb(255,255,255)" stroke-width="1" opacity="0.7725490196078432" d="M 286.5 27 L 285.5 29 L 286.5 27 Z "></path><path fill="rgb(255,255,255)" stroke="rgb(255,255,255)" stroke-width="1" opacity="0.7725490196078432" d="M 214.5 29 L 213.5 31 L 214.5 29 Z "></path><path fill="rgb(255,255,255)" stroke="rgb(255,255,255)" stroke-width="1" opacity="0.7725490196078432" d="M 16.5 40 L 39.5 64 L 16.5 40 Z "></path><path fill="rgb(255,255,255)" stroke="rgb(255,255,255)" stroke-width="1" opacity="0.7725490196078432" d="M 217.5 45 L 162 101.5 L 184.5 124 L 241.5 68 L 185.5 125 L 161 101.5 L 217.5 45 Z "></path><path fill="rgb(255,255,255)" stroke="rgb(255,255,255)" stroke-width="1" opacity="0.7725490196078432" d="M 117.5 52 L 118 56.5 L 117 56.5 L 117.5 52 Z "></path><path fill="rgb(255,255,255)" stroke="rgb(255,255,255)" stroke-width="1" opacity="0.7725490196078432" d="M 0.5 56 L 1 65.5 L 0 65.5 L 0.5 56 Z "></path><path fill="rgb(255,255,255)" stroke="rgb(255,255,255)" stroke-width="1" opacity="0.7725490196078432" d="M 117.5 62 L 118 67.5 L 117 67.5 L 117.5 62 Z "></path><path fill="rgb(255,255,255)" stroke="rgb(255,255,255)" stroke-width="1" opacity="0.7725490196078432" d="M 47.5 67 L 55 67.5 L 47.5 68 L 47.5 67 Z "></path><path fill="rgb(255,255,255)" stroke="rgb(255,255,255)" stroke-width="1" opacity="0.7725490196078432" d="M 243.5 70 L 245.5 73 L 243.5 70 Z "></path><path fill="rgb(255,255,255)" stroke="rgb(255,255,255)" stroke-width="1" opacity="0.7725490196078432" d="M 258.5 73 L 257.5 75 L 258.5 73 Z "></path><path fill="rgb(255,255,255)" stroke="rgb(255,255,255)" stroke-width="1" opacity="0.7725490196078432" d="M 14.5 97 L 16.5 100 L 14.5 97 Z "></path><path fill="rgb(255,255,255)" stroke="rgb(255,255,255)" stroke-width="1" opacity="0.7725490196078432" d="M 18.5 101 L 19.5 103 L 18.5 101 Z "></path><path fill="rgb(255,255,255)" stroke="rgb(255,255,255)" stroke-width="1" opacity="0.7725490196078432" d="M 27.5 108 L 28.5 110 L 27.5 108 Z "></path><path fill="rgb(255,255,255)" stroke="rgb(255,255,255)" stroke-width="1" opacity="0.7725490196078432" d="M 57.5 117 L 62 117.5 L 57.5 118 L 57.5 117 Z "></path><path fill="rgb(255,255,255)" stroke="rgb(255,255,255)" stroke-width="1" opacity="0.7725490196078432" d="M 90.5 150 L 137.5 198 L 90.5 150 Z "></path><path fill="rgb(255,255,255)" stroke="rgb(255,255,255)" stroke-width="1" opacity="0.7725490196078432" d="M 226.5 170 L 231 170.5 L 226.5 171 L 226.5 170 Z "></path><path fill="rgb(255,255,255)" stroke="rgb(255,255,255)" stroke-width="1" opacity="0.7725490196078432" d="M 259.5 178 L 260.5 180 L 259.5 178 Z "></path><path fill="rgb(255,255,255)" stroke="rgb(255,255,255)" stroke-width="1" opacity="0.7725490196078432" d="M 262.5 180 L 263.5 182 L 262.5 180 Z "></path><path fill="rgb(255,255,255)" stroke="rgb(255,255,255)" stroke-width="1" opacity="0.7725490196078432" d="M 265.5 182 L 268.5 186 L 265.5 182 Z "></path><path fill="rgb(255,255,255)" stroke="rgb(255,255,255)" stroke-width="1" opacity="0.7725490196078432" d="M 271.5 188 L 274.5 192 L 271.5 188 Z "></path><path fill="rgb(255,255,255)" stroke="rgb(255,255,255)" stroke-width="1" opacity="0.7725490196078432" d="M 103.5 193 L 104 196.5 L 103 196.5 L 103.5 193 Z "></path><path fill="rgb(255,255,255)" stroke="rgb(255,255,255)" stroke-width="1" opacity="0.7725490196078432" d="M 276.5 194 L 277.5 196 L 276.5 194 Z "></path><path fill="rgb(255,255,255)" stroke="rgb(255,255,255)" stroke-width="1" opacity="0.7725490196078432" d="M 278.5 197 L 279.5 199 L 278.5 197 Z "></path><path fill="rgb(255,255,255)" stroke="rgb(255,255,255)" stroke-width="1" opacity="0.7725490196078432" d="M 100.5 201 L 49.5 253 L 100.5 201 Z "></path><path fill="rgb(255,255,255)" stroke="rgb(255,255,255)" stroke-width="1" opacity="0.7725490196078432" d="M 234.5 220 L 237 220.5 L 234.5 221 L 234.5 220 Z "></path><path fill="rgb(255,255,255)" stroke="rgb(255,255,255)" stroke-width="1" opacity="0.7725490196078432" d="M 238.5 220 L 241 220.5 L 238.5 221 L 238.5 220 Z "></path><path fill="rgb(255,255,255)" stroke="rgb(255,255,255)" stroke-width="1" opacity="0.7725490196078432" d="M 287.5 222 L 288 226.5 L 287 226.5 L 287.5 222 Z "></path><path fill="rgb(255,255,255)" stroke="rgb(255,255,255)" stroke-width="1" opacity="0.7725490196078432" d="M 247.5 223 L 248.5 225 L 247.5 223 Z "></path><path fill="rgb(255,255,255)" stroke="rgb(255,255,255)" stroke-width="1" opacity="0.7725490196078432" d="M 254.5 230 L 271.5 248 L 254.5 230 Z "></path><path fill="rgb(255,255,255)" stroke="rgb(255,255,255)" stroke-width="1" opacity="0.7725490196078432" d="M 287.5 231 L 288 235.5 L 287 235.5 L 287.5 231 Z "></path><path fill="rgb(255,255,255)" stroke="rgb(255,255,255)" stroke-width="1" opacity="0.7725490196078432" d="M 8.5 232 L 7.5 234 L 8.5 232 Z "></path><path fill="rgb(255,255,255)" stroke="rgb(255,255,255)" stroke-width="1" opacity="0.7725490196078432" d="M 35.5 243 L 36 248.5 L 35 248.5 L 35.5 243 Z "></path><path fill="rgb(255,255,255)" stroke="rgb(255,255,255)" stroke-width="1" opacity="0.7725490196078432" d="M 224.5 248 L 247.5 272 L 224.5 248 Z "></path><path fill="rgb(255,255,255)" stroke="rgb(255,255,255)" stroke-width="1" opacity="0.7725490196078432" d="M 0.5 250 L 1 252.5 L 0 252.5 L 0.5 250 Z "></path><path fill="rgb(255,255,255)" stroke="rgb(255,255,255)" stroke-width="1" opacity="0.7725490196078432" d="M 36.5 250 L 39.5 254 L 36.5 250 Z "></path><path fill="rgb(255,255,255)" stroke="rgb(255,255,255)" stroke-width="1" opacity="0.7725490196078432" d="M 0.5 255 L 1 257.5 L 0 257.5 L 0.5 255 Z "></path><path fill="rgb(255,255,255)" stroke="rgb(255,255,255)" stroke-width="1" opacity="0.7725490196078432" d="M 178.5 259 L 179.5 261 L 178.5 259 Z "></path><path fill="rgb(255,255,255)" stroke="rgb(255,255,255)" stroke-width="1" opacity="0.7725490196078432" d="M 180.5 262 L 181.5 264 L 180.5 262 Z "></path><path fill="rgb(255,255,255)" stroke="rgb(255,255,255)" stroke-width="1" opacity="0.7725490196078432" d="M 182.5 265 L 185.5 269 L 182.5 265 Z "></path><path fill="rgb(255,255,255)" stroke="rgb(255,255,255)" stroke-width="1" opacity="0.7725490196078432" d="M 188.5 271 L 191.5 275 L 188.5 271 Z "></path><path fill="rgb(255,255,255)" stroke="rgb(255,255,255)" stroke-width="1" opacity="0.7725490196078432" d="M 194.5 276 L 195.5 278 L 194.5 276 Z "></path><path fill="rgb(255,255,255)" stroke="rgb(255,255,255)" stroke-width="1" opacity="0.7725490196078432" d="M 9.5 277 L 10.5 279 L 9.5 277 Z "></path><path fill="rgb(255,255,255)" stroke="rgb(255,255,255)" stroke-width="1" opacity="0.7725490196078432" d="M 197.5 278 L 198.5 280 L 197.5 278 Z "></path><path fill="rgb(255,255,255)" stroke="rgb(255,255,255)" stroke-width="1" opacity="0.7725490196078432" d="M 55.5 279 L 54.5 281 L 55.5 279 Z "></path><path fill="rgb(255,255,255)" stroke="rgb(255,255,255)" stroke-width="1" opacity="0.7725490196078432" d="M 30.5 287 L 33 287.5 L 30.5 288 L 30.5 287 Z "></path><path fill="rgb(255,255,255)" stroke="rgb(255,255,255)" stroke-width="1" opacity="0.7725490196078432" d="M 35.5 287 L 38 287.5 L 35.5 288 L 35.5 287 Z "></path><path fill="rgb(255,255,255)" stroke="rgb(255,255,255)" stroke-width="1" opacity="0.7725490196078432" d="M 222.5 287 L 227 287.5 L 222.5 288 L 222.5 287 Z "></path><path fill="rgb(255,255,255)" stroke="rgb(255,255,255)" stroke-width="1" opacity="0.7725490196078432" d="M 231.5 287 L 236 287.5 L 231.5 288 L 231.5 287 Z "></path><path fill="rgb(255,255,255)" stroke="rgb(255,255,255)" stroke-width="1" opacity="1" d="M 58.5 0 Q 86.7 1.8 101 17.5 Q 109.1 25.9 114 37.5 L 117 48.5 L 118 61.5 L 117 62.5 L 117 70.5 L 115 79.5 L 208.5 173 L 213.5 173 Q 223 169 238.5 171 Q 259 175 271 187.5 Q 286.5 202 288 230.5 L 287 231.5 L 287 239.5 L 284 248 L 276.5 250 L 273.5 249 L 247.5 223 Q 243.4 219.1 234.5 220 Q 225.6 221.6 222 228.5 L 220 234.5 L 220 240.5 L 224 248.5 L 249 273.5 L 250 280.5 L 248 284 L 238.5 287 L 227.5 288 L 226.5 287 L 218.5 287 L 205.5 283 Q 194.2 277.8 186 269.5 L 178 258.5 L 172 244.5 Q 173.2 239.8 171 238.5 L 171 220.5 L 172 219.5 L 173 208.5 L 79.5 115 L 74.5 115 Q 65 119 49.5 117 L 35.5 113 L 17 101 L 7 86.5 L 2 73.5 L 1 69.5 L 1 50.5 L 4 40 Q 6.3 37.4 12.5 38 L 39.5 64 Q 43.8 69.2 54.5 68 Q 62.4 65.9 66 59.5 Q 69.1 55.1 68 46.5 L 65 40.5 L 39 14.5 L 38 8.5 L 40 4 L 49.5 1 L 57.5 1 L 58.5 0 Z M 93 186 L 91 187 L 35 244 L 36 251 L 40 254 L 44 255 L 50 253 L 101 202 L 104 197 L 103 191 Q 101 185 93 186 Z "></path><path fill="rgb(255,255,255)" stroke="rgb(255,255,255)" stroke-width="1" opacity="1" d="M 265.5 0 L 268.5 1 L 287 19.5 L 288 22.5 L 283 33.5 L 262 68.5 L 256.5 75 L 251.5 76 Q 244.3 74.3 241.5 68 L 184.5 124 L 162 101.5 L 218 45.5 Q 213.3 41.7 212 34.5 L 216.5 28 L 254.5 5 L 265.5 0 Z "></path><path fill="rgb(255,255,255)" stroke="rgb(255,255,255)" stroke-width="1" opacity="1" d="M 89.5 151 L 137 197.5 L 56.5 279 L 47.5 285 L 33.5 288 L 22.5 286 L 16.5 283 L 7 274.5 L 2 265.5 L 0 253.5 L 3 240.5 L 9 231.5 L 89.5 151 Z "></path><path fill="rgb(255,255,255)" stroke="rgb(255,255,255)" stroke-width="1" opacity="0.2980392156862745" d="M 49.5 0 L 52 0.5 L 49.5 1 L 49.5 0 Z "></path><path fill="rgb(255,255,255)" stroke="rgb(255,255,255)" stroke-width="1" opacity="0.2980392156862745" d="M 66.5 0 L 69 0.5 L 66.5 1 L 66.5 0 Z "></path><path fill="rgb(255,255,255)" stroke="rgb(255,255,255)" stroke-width="1" opacity="0.2980392156862745" d="M 72.5 1 L 75 1.5 L 72.5 2 L 72.5 1 Z "></path><path fill="rgb(255,255,255)" stroke="rgb(255,255,255)" stroke-width="1" opacity="0.2980392156862745" d="M 259.5 1 L 258.5 3 L 259.5 1 Z "></path><path fill="rgb(255,255,255)" stroke="rgb(255,255,255)" stroke-width="1" opacity="0.2980392156862745" d="M 270.5 1 L 286.5 18 L 270.5 1 Z "></path><path fill="rgb(255,255,255)" stroke="rgb(255,255,255)" stroke-width="1" opacity="0.2980392156862745" d="M 254.5 4 L 253.5 6 L 254.5 4 Z "></path><path fill="rgb(255,255,255)" stroke="rgb(255,255,255)" stroke-width="1" opacity="0.2980392156862745" d="M 249.5 7 L 248.5 9 L 249.5 7 Z "></path><path fill="rgb(255,255,255)" stroke="rgb(255,255,255)" stroke-width="1" opacity="0.2980392156862745" d="M 37.5 8 L 38 11.5 L 37 11.5 L 37.5 8 Z "></path><path fill="rgb(255,255,255)" stroke="rgb(255,255,255)" stroke-width="1" opacity="0.2980392156862745" d="M 90.5 8 L 91.5 10 L 90.5 8 Z "></path><path fill="rgb(255,255,255)" stroke="rgb(255,255,255)" stroke-width="1" opacity="0.2980392156862745" d="M 93.5 10 L 94.5 12 L 93.5 10 Z "></path><path fill="rgb(255,255,255)" stroke="rgb(255,255,255)" stroke-width="1" opacity="0.2980392156862745" d="M 244.5 10 L 243.5 12 L 244.5 10 Z "></path><path fill="rgb(255,255,255)" stroke="rgb(255,255,255)" stroke-width="1" opacity="0.2980392156862745" d="M 239.5 13 L 238.5 15 L 239.5 13 Z "></path><path fill="rgb(255,255,255)" stroke="rgb(255,255,255)" stroke-width="1" opacity="0.2980392156862745" d="M 38.5 14 L 42.5 19 L 38.5 14 Z "></path><path fill="rgb(255,255,255)" stroke="rgb(255,255,255)" stroke-width="1" opacity="0.2980392156862745" d="M 234.5 16 L 233.5 18 L 231.5 19 L 232.5 17 L 234.5 16 Z "></path><path fill="rgb(255,255,255)" stroke="rgb(255,255,255)" stroke-width="1" opacity="0.2980392156862745" d="M 229.5 19 L 228.5 21 L 226.5 22 L 227.5 20 L 229.5 19 Z "></path><path fill="rgb(255,255,255)" stroke="rgb(255,255,255)" stroke-width="1" opacity="0.2980392156862745" d="M 105.5 22 L 107.5 25 L 105.5 22 Z "></path><path fill="rgb(255,255,255)" stroke="rgb(255,255,255)" stroke-width="1" opacity="0.2980392156862745" d="M 224.5 22 L 223.5 24 L 221.5 25 L 222.5 23 L 224.5 22 Z "></path><path fill="rgb(255,255,255)" stroke="rgb(255,255,255)" stroke-width="1" opacity="0.2980392156862745" d="M 219.5 25 L 218.5 27 L 215.5 29 L 217.5 26 L 219.5 25 Z "></path><path fill="rgb(255,255,255)" stroke="rgb(255,255,255)" stroke-width="1" opacity="0.2980392156862745" d="M 108.5 26 L 109.5 28 L 108.5 26 Z "></path><path fill="rgb(255,255,255)" stroke="rgb(255,255,255)" stroke-width="1" opacity="0.2980392156862745" d="M 286.5 28 L 285.5 30 L 286.5 28 Z "></path><path fill="rgb(255,255,255)" stroke="rgb(255,255,255)" stroke-width="1" opacity="0.2980392156862745" d="M 283.5 33 L 282.5 35 L 283.5 33 Z "></path><path fill="rgb(255,255,255)" stroke="rgb(255,255,255)" stroke-width="1" opacity="0.2980392156862745" d="M 8.5 37 L 12 37.5 L 8.5 38 L 8.5 37 Z "></path><path fill="rgb(255,255,255)" stroke="rgb(255,255,255)" stroke-width="1" opacity="0.2980392156862745" d="M 14.5 38 L 15.5 40 L 14.5 38 Z "></path><path fill="rgb(255,255,255)" stroke="rgb(255,255,255)" stroke-width="1" opacity="0.2980392156862745" d="M 212.5 38 L 218 44.5 L 161 101.5 L 184.5 126 L 160 101.5 L 217 44.5 L 212 39.5 L 212.5 38 Z "></path><path fill="rgb(255,255,255)" stroke="rgb(255,255,255)" stroke-width="1" opacity="0.2980392156862745" d="M 280.5 38 L 279.5 40 L 280.5 38 Z "></path><path fill="rgb(255,255,255)" stroke="rgb(255,255,255)" stroke-width="1" opacity="0.2980392156862745" d="M 64.5 41 L 67 45.5 L 66 45.5 L 64.5 41 Z "></path><path fill="rgb(255,255,255)" stroke="rgb(255,255,255)" stroke-width="1" opacity="0.2980392156862745" d="M 277.5 43 L 276.5 45 L 277.5 43 Z "></path><path fill="rgb(255,255,255)" stroke="rgb(255,255,255)" stroke-width="1" opacity="0.2980392156862745" d="M 1.5 45 L 2 47.5 L 1 47.5 L 1.5 45 Z "></path><path fill="rgb(255,255,255)" stroke="rgb(255,255,255)" stroke-width="1" opacity="0.2980392156862745" d="M 67.5 47 L 68 53.5 L 67 53.5 L 67.5 47 Z "></path><path fill="rgb(255,255,255)" stroke="rgb(255,255,255)" stroke-width="1" opacity="0.2980392156862745" d="M 274.5 48 L 273.5 50 L 274.5 48 Z "></path><path fill="rgb(255,255,255)" stroke="rgb(255,255,255)" stroke-width="1" opacity="0.2980392156862745" d="M 117.5 49 L 118 51.5 L 117 51.5 L 117.5 49 Z "></path><path fill="rgb(255,255,255)" stroke="rgb(255,255,255)" stroke-width="1" opacity="0.2980392156862745" d="M 0.5 50 L 1 55.5 L 0 55.5 L 0.5 50 Z "></path><path fill="rgb(255,255,255)" stroke="rgb(255,255,255)" stroke-width="1" opacity="0.2980392156862745" d="M 271.5 53 L 271 54.5 L 269.5 57 L 270 55.5 L 271.5 53 Z "></path><path fill="rgb(255,255,255)" stroke="rgb(255,255,255)" stroke-width="1" opacity="0.2980392156862745" d="M 268.5 58 L 268 59.5 L 266.5 62 L 267 60.5 L 268.5 58 Z "></path><path fill="rgb(255,255,255)" stroke="rgb(255,255,255)" stroke-width="1" opacity="0.2980392156862745" d="M 64.5 60 L 63.5 62 L 64.5 60 Z "></path><path fill="rgb(255,255,255)" stroke="rgb(255,255,255)" stroke-width="1" opacity="0.2980392156862745" d="M 40.5 63 L 41.5 65 L 40.5 63 Z "></path><path fill="rgb(255,255,255)" stroke="rgb(255,255,255)" stroke-width="1" opacity="0.2980392156862745" d="M 61.5 63 L 60.5 65 L 61.5 63 Z "></path><path fill="rgb(255,255,255)" stroke="rgb(255,255,255)" stroke-width="1" opacity="0.2980392156862745" d="M 265.5 63 L 265 64.5 L 263.5 67 L 264 65.5 L 265.5 63 Z "></path><path fill="rgb(255,255,255)" stroke="rgb(255,255,255)" stroke-width="1" opacity="0.2980392156862745" d="M 0.5 66 L 1 68.5 L 0 68.5 L 0.5 66 Z "></path><path fill="rgb(255,255,255)" stroke="rgb(255,255,255)" stroke-width="1" opacity="0.2980392156862745" d="M 262.5 68 L 262 69.5 L 259.5 73 L 261 70.5 L 262.5 68 Z "></path><path fill="rgb(255,255,255)" stroke="rgb(255,255,255)" stroke-width="1" opacity="0.2980392156862745" d="M 241.5 69 L 243 69.5 L 186.5 125 L 241.5 69 Z "></path><path fill="rgb(255,255,255)" stroke="rgb(255,255,255)" stroke-width="1" opacity="0.2980392156862745" d="M 1.5 71 L 2 73.5 L 1 73.5 L 1.5 71 Z "></path><path fill="rgb(255,255,255)" stroke="rgb(255,255,255)" stroke-width="1" opacity="0.2980392156862745" d="M 246.5 73 L 250 75.5 L 248.5 76 L 246.5 73 Z "></path><path fill="rgb(255,255,255)" stroke="rgb(255,255,255)" stroke-width="1" opacity="0.2980392156862745" d="M 115.5 77 L 116 79.5 L 209 172.5 L 115 79.5 L 115.5 77 Z "></path><path fill="rgb(255,255,255)" stroke="rgb(255,255,255)" stroke-width="1" opacity="0.2980392156862745" d="M 6.5 86 L 9 89.5 L 7 88.5 L 6.5 86 Z "></path><path fill="rgb(255,255,255)" stroke="rgb(255,255,255)" stroke-width="1" opacity="0.2980392156862745" d="M 9.5 91 L 10.5 93 L 9.5 91 Z "></path><path fill="rgb(255,255,255)" stroke="rgb(255,255,255)" stroke-width="1" opacity="0.2980392156862745" d="M 11.5 94 L 13.5 97 L 11.5 94 Z "></path><path fill="rgb(255,255,255)" stroke="rgb(255,255,255)" stroke-width="1" opacity="0.2980392156862745" d="M 20.5 103 L 28 109.5 L 25.5 108 L 20.5 103 Z "></path><path fill="rgb(255,255,255)" stroke="rgb(255,255,255)" stroke-width="1" opacity="0.2980392156862745" d="M 75.5 115 L 78 115.5 L 75.5 116 L 75.5 115 Z "></path><path fill="rgb(255,255,255)" stroke="rgb(255,255,255)" stroke-width="1" opacity="0.2980392156862745" d="M 79.5 115 L 172.5 209 L 79.5 115 Z "></path><path fill="rgb(255,255,255)" stroke="rgb(255,255,255)" stroke-width="1" opacity="0.2980392156862745" d="M 44.5 116 L 47 116.5 L 44.5 117 L 44.5 116 Z "></path><path fill="rgb(255,255,255)" stroke="rgb(255,255,255)" stroke-width="1" opacity="0.2980392156862745" d="M 70.5 116 L 73 116.5 L 70.5 117 L 70.5 116 Z "></path><path fill="rgb(255,255,255)" stroke="rgb(255,255,255)" stroke-width="1" opacity="0.2980392156862745" d="M 50.5 117 L 57 117.5 L 50.5 118 L 50.5 117 Z "></path><path fill="rgb(255,255,255)" stroke="rgb(255,255,255)" stroke-width="1" opacity="0.2980392156862745" d="M 62.5 117 L 67 117.5 L 62.5 118 L 62.5 117 Z "></path><path fill="rgb(255,255,255)" stroke="rgb(255,255,255)" stroke-width="1" opacity="0.2980392156862745" d="M 89.5 150 L 8.5 232 L 89.5 150 Z "></path><path fill="rgb(255,255,255)" stroke="rgb(255,255,255)" stroke-width="1" opacity="0.2980392156862745" d="M 221.5 170 L 226 170.5 L 221.5 171 L 221.5 170 Z "></path><path fill="rgb(255,255,255)" stroke="rgb(255,255,255)" stroke-width="1" opacity="0.2980392156862745" d="M 231.5 170 L 238 170.5 L 231.5 171 L 231.5 170 Z "></path><path fill="rgb(255,255,255)" stroke="rgb(255,255,255)" stroke-width="1" opacity="0.2980392156862745" d="M 215.5 171 L 218 171.5 L 215.5 172 L 215.5 171 Z "></path><path fill="rgb(255,255,255)" stroke="rgb(255,255,255)" stroke-width="1" opacity="0.2980392156862745" d="M 241.5 171 L 244 171.5 L 241.5 172 L 241.5 171 Z "></path><path fill="rgb(255,255,255)" stroke="rgb(255,255,255)" stroke-width="1" opacity="0.2980392156862745" d="M 210.5 172 L 213 172.5 L 210.5 173 L 210.5 172 Z "></path><path fill="rgb(255,255,255)" stroke="rgb(255,255,255)" stroke-width="1" opacity="0.2980392156862745" d="M 260.5 178 L 261.5 180 L 260.5 178 Z "></path><path fill="rgb(255,255,255)" stroke="rgb(255,255,255)" stroke-width="1" opacity="0.2980392156862745" d="M 263.5 180 L 264.5 182 L 263.5 180 Z "></path><path fill="rgb(255,255,255)" stroke="rgb(255,255,255)" stroke-width="1" opacity="0.2980392156862745" d="M 89.5 188 L 37.5 241 L 89.5 188 Z "></path><path fill="rgb(255,255,255)" stroke="rgb(255,255,255)" stroke-width="1" opacity="0.2980392156862745" d="M 100.5 188 L 101.5 190 L 100.5 188 Z "></path><path fill="rgb(255,255,255)" stroke="rgb(255,255,255)" stroke-width="1" opacity="0.2980392156862745" d="M 275.5 192 L 277.5 195 L 275.5 192 Z "></path><path fill="rgb(255,255,255)" stroke="rgb(255,255,255)" stroke-width="1" opacity="0.2980392156862745" d="M 278.5 196 L 279.5 198 L 278.5 196 Z "></path><path fill="rgb(255,255,255)" stroke="rgb(255,255,255)" stroke-width="1" opacity="0.2980392156862745" d="M 137.5 198 L 58.5 278 L 137.5 198 Z "></path><path fill="rgb(255,255,255)" stroke="rgb(255,255,255)" stroke-width="1" opacity="0.2980392156862745" d="M 101.5 199 L 50.5 251 L 101.5 199 Z "></path><path fill="rgb(255,255,255)" stroke="rgb(255,255,255)" stroke-width="1" opacity="0.2980392156862745" d="M 172.5 210 L 173 212.5 L 172 212.5 L 172.5 210 Z "></path><path fill="rgb(255,255,255)" stroke="rgb(255,255,255)" stroke-width="1" opacity="0.2980392156862745" d="M 171.5 215 L 172 217.5 L 171 217.5 L 171.5 215 Z "></path><path fill="rgb(255,255,255)" stroke="rgb(255,255,255)" stroke-width="1" opacity="0.2980392156862745" d="M 287.5 219 L 288 221.5 L 287 221.5 L 287.5 219 Z "></path><path fill="rgb(255,255,255)" stroke="rgb(255,255,255)" stroke-width="1" opacity="0.2980392156862745" d="M 170.5 222 L 171 237.5 L 170 237.5 L 170.5 222 Z "></path><path fill="rgb(255,255,255)" stroke="rgb(255,255,255)" stroke-width="1" opacity="0.2980392156862745" d="M 227.5 223 L 226.5 225 L 227.5 223 Z "></path><path fill="rgb(255,255,255)" stroke="rgb(255,255,255)" stroke-width="1" opacity="0.2980392156862745" d="M 246.5 223 L 247.5 225 L 246.5 223 Z "></path><path fill="rgb(255,255,255)" stroke="rgb(255,255,255)" stroke-width="1" opacity="0.2980392156862745" d="M 249.5 225 L 253.5 230 L 249.5 225 Z "></path><path fill="rgb(255,255,255)" stroke="rgb(255,255,255)" stroke-width="1" opacity="0.2980392156862745" d="M 224.5 226 L 223.5 228 L 224.5 226 Z "></path><path fill="rgb(255,255,255)" stroke="rgb(255,255,255)" stroke-width="1" opacity="0.2980392156862745" d="M 6.5 234 L 5.5 236 L 6.5 234 Z "></path><path fill="rgb(255,255,255)" stroke="rgb(255,255,255)" stroke-width="1" opacity="0.2980392156862745" d="M 220.5 235 L 221 238.5 L 220 238.5 L 220.5 235 Z "></path><path fill="rgb(255,255,255)" stroke="rgb(255,255,255)" stroke-width="1" opacity="0.2980392156862745" d="M 287.5 236 L 288 238.5 L 287 238.5 L 287.5 236 Z "></path><path fill="rgb(255,255,255)" stroke="rgb(255,255,255)" stroke-width="1" opacity="0.2980392156862745" d="M 4.5 237 L 4 238.5 L 2.5 241 L 3 239.5 L 4.5 237 Z "></path><path fill="rgb(255,255,255)" stroke="rgb(255,255,255)" stroke-width="1" opacity="0.2980392156862745" d="M 171.5 241 L 172 243.5 L 171 243.5 L 171.5 241 Z "></path><path fill="rgb(255,255,255)" stroke="rgb(255,255,255)" stroke-width="1" opacity="0.2980392156862745" d="M 286.5 241 L 287 243.5 L 286 243.5 L 286.5 241 Z "></path><path fill="rgb(255,255,255)" stroke="rgb(255,255,255)" stroke-width="1" opacity="0.2980392156862745" d="M 223.5 246 L 224.5 248 L 223.5 246 Z "></path><path fill="rgb(255,255,255)" stroke="rgb(255,255,255)" stroke-width="1" opacity="0.2980392156862745" d="M 0.5 247 L 1 249.5 L 0 249.5 L 0.5 247 Z "></path><path fill="rgb(255,255,255)" stroke="rgb(255,255,255)" stroke-width="1" opacity="0.2980392156862745" d="M 284.5 247 L 282.5 250 L 281 249.5 L 284.5 247 Z "></path><path fill="rgb(255,255,255)" stroke="rgb(255,255,255)" stroke-width="1" opacity="0.2980392156862745" d="M 272.5 248 L 273.5 250 L 272.5 248 Z "></path><path fill="rgb(255,255,255)" stroke="rgb(255,255,255)" stroke-width="1" opacity="0.2980392156862745" d="M 276.5 250 L 280 250.5 L 276.5 251 L 276.5 250 Z "></path><path fill="rgb(255,255,255)" stroke="rgb(255,255,255)" stroke-width="1" opacity="0.2980392156862745" d="M 39.5 252 L 42 253.5 L 40.5 254 L 39.5 252 Z "></path><path fill="rgb(255,255,255)" stroke="rgb(255,255,255)" stroke-width="1" opacity="0.2980392156862745" d="M 0.5 258 L 1 261.5 L 0 261.5 L 0.5 258 Z "></path><path fill="rgb(255,255,255)" stroke="rgb(255,255,255)" stroke-width="1" opacity="0.2980392156862745" d="M 178.5 260 L 179.5 262 L 178.5 260 Z "></path><path fill="rgb(255,255,255)" stroke="rgb(255,255,255)" stroke-width="1" opacity="0.2980392156862745" d="M 1.5 263 L 2 265.5 L 1 265.5 L 1.5 263 Z "></path><path fill="rgb(255,255,255)" stroke="rgb(255,255,255)" stroke-width="1" opacity="0.2980392156862745" d="M 180.5 263 L 181.5 265 L 180.5 263 Z "></path><path fill="rgb(255,255,255)" stroke="rgb(255,255,255)" stroke-width="1" opacity="0.2980392156862745" d="M 4.5 271 L 9 276.5 L 5 273.5 L 4.5 271 Z "></path><path fill="rgb(255,255,255)" stroke="rgb(255,255,255)" stroke-width="1" opacity="0.2980392156862745" d="M 248.5 272 L 249.5 274 L 248.5 272 Z "></path><path fill="rgb(255,255,255)" stroke="rgb(255,255,255)" stroke-width="1" opacity="0.2980392156862745" d="M 192.5 275 L 194.5 278 L 192.5 275 Z "></path><path fill="rgb(255,255,255)" stroke="rgb(255,255,255)" stroke-width="1" opacity="0.2980392156862745" d="M 250.5 275 L 251 280.5 L 247.5 285 L 249 282.5 L 250.5 275 Z "></path><path fill="rgb(255,255,255)" stroke="rgb(255,255,255)" stroke-width="1" opacity="0.2980392156862745" d="M 196.5 278 L 197.5 280 L 196.5 278 Z "></path><path fill="rgb(255,255,255)" stroke="rgb(255,255,255)" stroke-width="1" opacity="0.2980392156862745" d="M 11.5 279 L 17 283.5 L 15.5 283 L 11.5 279 Z "></path><path fill="rgb(255,255,255)" stroke="rgb(255,255,255)" stroke-width="1" opacity="0.2980392156862745" d="M 53.5 281 L 52.5 283 L 53.5 281 Z "></path><path fill="rgb(255,255,255)" stroke="rgb(255,255,255)" stroke-width="1" opacity="0.2980392156862745" d="M 50.5 283 L 49.5 285 L 47.5 286 L 48.5 284 L 50.5 283 Z "></path><path fill="rgb(255,255,255)" stroke="rgb(255,255,255)" stroke-width="1" opacity="0.2980392156862745" d="M 26.5 287 L 30 287.5 L 26.5 288 L 26.5 287 Z "></path><path fill="rgb(255,255,255)" stroke="rgb(255,255,255)" stroke-width="1" opacity="0.2980392156862745" d="M 38.5 287 L 41 287.5 L 38.5 288 L 38.5 287 Z "></path><path fill="rgb(255,255,255)" stroke="rgb(255,255,255)" stroke-width="1" opacity="0.2980392156862745" d="M 219.5 287 L 222 287.5 L 219.5 288 L 219.5 287 Z "></path><path fill="rgb(255,255,255)" stroke="rgb(255,255,255)" stroke-width="1" opacity="0.2980392156862745" d="M 236.5 287 L 239 287.5 L 236.5 288 L 236.5 287 Z "></path><path fill="rgb(0,0,0)" stroke="rgb(0,0,0)" stroke-width="1" opacity="0" d="M 0 0 L 49 0.5 Q 40.8 0.8 38 6.5 L 37 11.5 L 38 14.5 L 64 40.5 Q 68.5 45 67 55.5 L 63 63 L 54.5 67 L 47.5 67 L 39.5 63 L 14.5 38 L 8.5 37 L 2 42.5 L 0.5 50 L 0 0 Z "></path><path fill="rgb(0,0,0)" stroke="rgb(0,0,0)" stroke-width="1" opacity="0" d="M 69.5 0 L 261 0.5 L 217.5 26 L 212 31.5 Q 210 42.5 217 44.5 L 160 101.5 L 184.5 126 L 242.5 70 L 248.5 76 L 256.5 76 L 262 70.5 L 287.5 27 L 288 218.5 L 287 218.5 L 287 214.5 L 280 197.5 L 263.5 180 Q 255 174 243.5 171 L 221.5 170 L 209.5 173 L 116 79.5 L 116 75.5 L 118 69.5 L 118 49.5 L 115 37.5 L 110 27.5 L 93.5 10 L 80.5 3 L 74.5 1 L 69.5 1 L 69.5 0 Z "></path><path fill="rgb(0,0,0)" stroke="rgb(0,0,0)" stroke-width="1" opacity="0" d="M 269.5 0 L 288 0 L 288 18.5 L 287 18.5 L 270.5 1 L 269.5 0 Z "></path><path fill="rgb(0,0,0)" stroke="rgb(0,0,0)" stroke-width="1" opacity="0" d="M 0.5 69 L 1 73.5 L 7 88.5 Q 13.9 100.1 24.5 108 Q 33 114 44.5 117 L 66.5 118 L 78.5 115 L 173 209.5 L 172 210.5 L 171 221.5 L 170 222.5 L 170 237.5 L 174 252.5 L 178 260.5 L 194.5 278 Q 204.3 285.3 219 287.5 L 41.5 288 L 41.5 287 Q 53.1 285.6 58.5 278 L 138 198.5 L 90.5 150 L 8 231.5 L 2 240.5 L 0.5 247 L 0.5 69 Z "></path><path fill="rgb(0,0,0)" stroke="rgb(0,0,0)" stroke-width="1" opacity="0" d="M 92.5 187 Q 100.1 185.9 102 190.5 L 103 196.5 L 50 250.5 L 50 252 L 42.5 254 L 37 250.5 L 36 243.5 L 90.5 188 L 92.5 187 Z "></path><path fill="rgb(0,0,0)" stroke="rgb(0,0,0)" stroke-width="1" opacity="0" d="M 233.5 221 Q 241.5 220 245.5 223 L 273.5 250 L 279.5 251 L 285 247.5 L 287.5 239 L 288 288 L 239 287.5 Q 246.5 287 250 282.5 L 251 275.5 L 225 248.5 Q 219.8 244.2 221 233.5 L 225 225 L 233.5 221 Z "></path><path fill="rgb(0,0,0)" stroke="rgb(0,0,0)" stroke-width="1" opacity="0" d="M 0.5 262 Q 3.7 276.3 14.5 283 L 26 287.5 L 0 288 L 0.5 262 Z "></path></svg>