<svg data-name="Layer 1" xmlns="http://www.w3.org/2000/svg" viewBox="0 0 511.98 512"><path d="M481.42 332.89c-26.34-26.35-62.88-37.52-109.81-24.94L204.25 140.42l2.21-8.36a105.47 105.47 0 00-27.17-101.44A103.38 103.38 0 0078.07 3.78a15 15 0 00-6.62 25.07l40.3 40.29a30 30 0 010 42.4 30.34 30.34 0 01-42.45 0L29 71.26a15 15 0 00-25 6.66 103.74 103.74 0 0026.8 101.19c26.33 26.34 62.82 37.55 109.79 24.94L308 371.58c-12.49 46.92-1.72 83.11 25 109.8a103.39 103.39 0 00101.19 26.83 15 15 0 006.63-25.07l-40.29-40.29a30 30 0 010-42.39 30.37 30.37 0 0142.45 0l40.31 40.29a15 15 0 0025.06-6.66 103.78 103.78 0 00-26.93-101.2z"/><path d="M160.54 266.58l-143 143a60 60 0 0084.86 84.86l143-143zM88.31 447.9a15 15 0 01-21.21-21.21l91-91a15 15 0 1121.21 21.21zM507.59 30.25L481.73 4.39a15 15 0 00-18.32-2.25l-79.55 47.72A15 15 0 00381 73.33l6.33 6.33-101 100.57 42.44 42.43 101-100.57 8.91 8.92a15 15 0 0023.47-2.89l47.73-79.54a15 15 0 00-2.29-18.33z"/></svg>