<svg width="512" height="512" version="1.1" xmlns="http://www.w3.org/2000/svg"><path fill="rgb(0,208,126)" stroke="rgb(0,208,126)" stroke-width="1" opacity="0.5215686274509804" d="M 161.5 341 L 166 341.5 L 161.5 342 L 161.5 341 Z "></path><path fill="rgb(0,208,126)" stroke="rgb(0,208,126)" stroke-width="1" opacity="0.5215686274509804" d="M 256.5 341 L 257 436.5 L 256 436.5 L 256.5 341 Z "></path><path fill="rgb(0,208,126)" stroke="rgb(0,208,126)" stroke-width="1" opacity="0.5215686274509804" d="M 154.5 342 L 158 342.5 L 154.5 343 L 154.5 342 Z "></path><path fill="rgb(0,208,126)" stroke="rgb(0,208,126)" stroke-width="1" opacity="0.5215686274509804" d="M 150.5 343 L 153 343.5 L 150.5 344 L 150.5 343 Z "></path><path fill="rgb(0,208,126)" stroke="rgb(0,208,126)" stroke-width="1" opacity="0.5215686274509804" d="M 146.5 344 L 149 344.5 L 146.5 345 L 146.5 344 Z "></path><path fill="rgb(0,208,126)" stroke="rgb(0,208,126)" stroke-width="1" opacity="0.5215686274509804" d="M 143.5 345 L 145 345.5 L 141.5 347 L 141.5 346 L 143.5 345 Z "></path><path fill="rgb(0,208,126)" stroke="rgb(0,208,126)" stroke-width="1" opacity="0.5215686274509804" d="M 131.5 350 L 133 350.5 L 128.5 353 L 129.5 351 L 131.5 350 Z "></path><path fill="rgb(0,208,126)" stroke="rgb(0,208,126)" stroke-width="1" opacity="0.5215686274509804" d="M 126.5 353 L 125.5 355 Q 113.3 361.9 105 372.5 L 99.5 380 L 101 377.5 Q 107.1 366.1 117.5 359 L 126.5 353 Z "></path><path fill="rgb(0,208,126)" stroke="rgb(0,208,126)" stroke-width="1" opacity="0.5215686274509804" d="M 98.5 381 L 98 382.5 L 95.5 387 L 96 385.5 L 98.5 381 Z "></path><path fill="rgb(0,208,126)" stroke="rgb(0,208,126)" stroke-width="1" opacity="0.5215686274509804" d="M 92.5 392 L 93 393.5 L 91.5 396 L 91 394.5 L 92.5 392 Z "></path><path fill="rgb(0,208,126)" stroke="rgb(0,208,126)" stroke-width="1" opacity="0.5215686274509804" d="M 88.5 403 L 89 405.5 L 88 405.5 L 88.5 403 Z "></path><path fill="rgb(0,208,126)" stroke="rgb(0,208,126)" stroke-width="1" opacity="0.5215686274509804" d="M 87.5 407 L 88 410.5 L 87 410.5 L 87.5 407 Z "></path><path fill="rgb(0,208,126)" stroke="rgb(0,208,126)" stroke-width="1" opacity="0.5215686274509804" d="M 86.5 412 L 87 416.5 L 86 416.5 L 86.5 412 Z "></path><path fill="rgb(0,208,126)" stroke="rgb(0,208,126)" stroke-width="1" opacity="0.5215686274509804" d="M 85.5 420 L 86 428.5 L 85 428.5 L 85.5 420 Z "></path><path fill="rgb(0,208,126)" stroke="rgb(0,208,126)" stroke-width="1" opacity="0.5215686274509804" d="M 86.5 434 L 87 439.5 L 86 439.5 L 86.5 434 Z "></path><path fill="rgb(0,208,126)" stroke="rgb(0,208,126)" stroke-width="1" opacity="0.5215686274509804" d="M 255.5 438 L 256 442.5 L 255 442.5 L 255.5 438 Z "></path><path fill="rgb(0,208,126)" stroke="rgb(0,208,126)" stroke-width="1" opacity="0.5215686274509804" d="M 87.5 442 L 88 445.5 L 87 445.5 L 87.5 442 Z "></path><path fill="rgb(0,208,126)" stroke="rgb(0,208,126)" stroke-width="1" opacity="0.5215686274509804" d="M 254.5 444 L 255 447.5 L 253.5 451 L 253 448.5 L 254.5 444 Z "></path><path fill="rgb(0,208,126)" stroke="rgb(0,208,126)" stroke-width="1" opacity="0.5215686274509804" d="M 88.5 447 L 90 452.5 L 89 452.5 L 88.5 447 Z "></path><path fill="rgb(0,208,126)" stroke="rgb(0,208,126)" stroke-width="1" opacity="0.5215686274509804" d="M 91.5 457 L 94 462.5 L 93 462.5 L 91.5 457 Z "></path><path fill="rgb(0,208,126)" stroke="rgb(0,208,126)" stroke-width="1" opacity="0.5215686274509804" d="M 250.5 458 L 251 459.5 Q 242.7 479.2 227.5 492 L 214.5 501 L 215.5 499 Q 227.3 493.3 235 483.5 Q 244.9 472.9 250.5 458 Z "></path><path fill="rgb(0,208,126)" stroke="rgb(0,208,126)" stroke-width="1" opacity="0.5215686274509804" d="M 96.5 468 Q 105.2 483.8 119 494.5 L 114.5 491 L 108 485.5 L 98 472.5 L 96.5 468 Z "></path><path fill="rgb(0,208,126)" stroke="rgb(0,208,126)" stroke-width="1" opacity="0.5215686274509804" d="M 120.5 495 L 125 498.5 L 123.5 498 L 120.5 495 Z "></path><path fill="rgb(0,208,126)" stroke="rgb(0,208,126)" stroke-width="1" opacity="0.5215686274509804" d="M 126.5 499 L 130 501.5 L 128.5 501 L 126.5 499 Z "></path><path fill="rgb(0,208,126)" stroke="rgb(0,208,126)" stroke-width="1" opacity="0.5215686274509804" d="M 212.5 501 L 211.5 503 L 206.5 505 L 206.5 504 L 212.5 501 Z "></path><path fill="rgb(0,208,126)" stroke="rgb(0,208,126)" stroke-width="1" opacity="0.5215686274509804" d="M 133.5 503 L 136 504.5 L 134.5 505 L 133.5 503 Z "></path><path fill="rgb(0,208,126)" stroke="rgb(0,208,126)" stroke-width="1" opacity="0.5215686274509804" d="M 137.5 505 L 144 507.5 L 141.5 508 L 137.5 506 L 137.5 505 Z "></path><path fill="rgb(0,208,126)" stroke="rgb(0,208,126)" stroke-width="1" opacity="0.5215686274509804" d="M 201.5 506 L 203 506.5 L 198.5 508 L 198.5 507 L 201.5 506 Z "></path><path fill="rgb(0,208,126)" stroke="rgb(0,208,126)" stroke-width="1" opacity="0.5215686274509804" d="M 148.5 509 L 151 509.5 L 148.5 510 L 148.5 509 Z "></path><path fill="rgb(0,208,126)" stroke="rgb(0,208,126)" stroke-width="1" opacity="0.5215686274509804" d="M 191.5 509 L 194 509.5 L 191.5 510 L 191.5 509 Z "></path><path fill="rgb(0,208,126)" stroke="rgb(0,208,126)" stroke-width="1" opacity="0.5215686274509804" d="M 153.5 510 L 157 510.5 L 153.5 511 L 153.5 510 Z "></path><path fill="rgb(0,208,126)" stroke="rgb(0,208,126)" stroke-width="1" opacity="0.5215686274509804" d="M 185.5 510 L 189 510.5 L 185.5 511 L 185.5 510 Z "></path><path fill="rgb(0,208,126)" stroke="rgb(0,208,126)" stroke-width="1" opacity="0.5215686274509804" d="M 158.5 511 L 163 511.5 L 158.5 512 L 158.5 511 Z "></path><path fill="rgb(0,208,126)" stroke="rgb(0,208,126)" stroke-width="1" opacity="0.5215686274509804" d="M 180.5 511 L 184 511.5 L 180.5 512 L 180.5 511 Z "></path><path fill="rgb(0,0,0)" stroke="rgb(0,0,0)" stroke-width="1" opacity="0" d="M 0 0 L 157 0.5 L 144.5 3 L 129.5 9 Q 115.5 17 105 28.5 Q 95.9 38.9 90 52.5 L 85 69.5 L 84 91.5 L 87 108.5 L 96 129.5 Q 104.3 143.2 116.5 153 L 136.5 165 Q 146.7 169.3 160 170.5 L 144.5 174 L 128.5 181 Q 115.7 188.7 106 199.5 Q 95.8 210.8 90 226.5 L 86 241.5 L 85 257.5 L 86 258.5 L 87 274.5 L 93 292.5 Q 101.1 309.4 114.5 321 Q 131.4 337.6 161 341.5 Q 122.6 347.1 104 372.5 Q 86.2 392.2 85 428.5 L 86 429.5 L 87 445.5 L 91 458.5 Q 99 478 113.5 491 L 134.5 505 L 148.5 510 L 158 511.5 L 0 512 L 0 0 Z "></path><path fill="rgb(0,0,0)" stroke="rgb(0,0,0)" stroke-width="1" opacity="0" d="M 353.5 0 L 511.5 0 L 512 0.5 L 512 512 L 184 511.5 L 200.5 508 L 211.5 503 Q 226.4 494.9 237 482.5 Q 245.6 472.6 251 459.5 L 257 436.5 L 257.5 272 Q 264.1 303.9 285.5 321 Q 298.7 333.3 318.5 339 L 334.5 342 L 349.5 342 L 365.5 339 L 386.5 330 Q 398.7 322.2 408 311.5 Q 419.3 298.3 425 279.5 L 427 270.5 L 427 262.5 L 428 261.5 L 428 250.5 L 424 229.5 L 417 213.5 Q 409.2 199.8 397.5 190 L 386.5 182 L 369.5 174 L 351 170.5 Q 388.1 164.6 407 140.5 Q 417.4 128.4 423 111.5 L 426 98.5 Q 424.6 89.6 427 84.5 L 426 83.5 L 426 71.5 L 421 53.5 Q 412.1 31.4 394.5 18 Q 386 10.5 374.5 6 L 358.5 1 L 353.5 1 L 353.5 0 Z "></path><path fill="rgb(0,0,0)" stroke="rgb(0,0,0)" stroke-width="1" opacity="0" d="M 257 171 L 328 171.5 L 314.5 174 L 297.5 182 Q 284.6 190.1 275 201.5 Q 261.9 216.3 257.5 240 L 257 171 Z "></path><path fill="rgb(182,88,255)" stroke="rgb(182,88,255)" stroke-width="1" opacity="0.5333333333333333" d="M 157.5 171 L 163 171.5 L 157.5 172 L 157.5 171 Z "></path><path fill="rgb(182,88,255)" stroke="rgb(182,88,255)" stroke-width="1" opacity="0.5333333333333333" d="M 256.5 171 L 257 340.5 L 256 340.5 L 256.5 171 Z "></path><path fill="rgb(182,88,255)" stroke="rgb(182,88,255)" stroke-width="1" opacity="0.5333333333333333" d="M 152.5 172 L 156 172.5 L 152.5 173 L 152.5 172 Z "></path><path fill="rgb(182,88,255)" stroke="rgb(182,88,255)" stroke-width="1" opacity="0.5333333333333333" d="M 148.5 173 L 151 173.5 L 148.5 174 L 148.5 173 Z "></path><path fill="rgb(182,88,255)" stroke="rgb(182,88,255)" stroke-width="1" opacity="0.5333333333333333" d="M 144.5 174 L 147 174.5 L 142.5 176 L 142.5 175 L 144.5 174 Z "></path><path fill="rgb(182,88,255)" stroke="rgb(182,88,255)" stroke-width="1" opacity="0.5333333333333333" d="M 139.5 176 L 141 176.5 L 137.5 178 L 137.5 177 L 139.5 176 Z "></path><path fill="rgb(182,88,255)" stroke="rgb(182,88,255)" stroke-width="1" opacity="0.5333333333333333" d="M 134.5 178 L 136 178.5 L 120.5 188 L 123.5 184 L 134.5 178 Z "></path><path fill="rgb(182,88,255)" stroke="rgb(182,88,255)" stroke-width="1" opacity="0.5333333333333333" d="M 118.5 188 L 113.5 194 L 108 198.5 L 100.5 208 L 102 205.5 L 113.5 192 L 118.5 188 Z "></path><path fill="rgb(182,88,255)" stroke="rgb(182,88,255)" stroke-width="1" opacity="0.5333333333333333" d="M 99.5 209 L 99 210.5 L 92.5 223 L 92 221.5 L 99.5 209 Z "></path><path fill="rgb(182,88,255)" stroke="rgb(182,88,255)" stroke-width="1" opacity="0.5333333333333333" d="M 91.5 224 L 92 225.5 L 89.5 232 L 89 229.5 L 91.5 224 Z "></path><path fill="rgb(182,88,255)" stroke="rgb(182,88,255)" stroke-width="1" opacity="0.5333333333333333" d="M 88.5 233 L 89 235.5 L 87.5 240 L 87 236.5 L 88.5 233 Z "></path><path fill="rgb(182,88,255)" stroke="rgb(182,88,255)" stroke-width="1" opacity="0.5333333333333333" d="M 86.5 241 L 87 246.5 L 86 246.5 L 86.5 241 Z "></path><path fill="rgb(182,88,255)" stroke="rgb(182,88,255)" stroke-width="1" opacity="0.5333333333333333" d="M 85.5 249 L 86 257.5 L 85 257.5 L 85.5 249 Z "></path><path fill="rgb(182,88,255)" stroke="rgb(182,88,255)" stroke-width="1" opacity="0.5333333333333333" d="M 86.5 263 L 87 269.5 L 86 269.5 L 86.5 263 Z "></path><path fill="rgb(182,88,255)" stroke="rgb(182,88,255)" stroke-width="1" opacity="0.5333333333333333" d="M 87.5 271 L 88 274.5 L 87 274.5 L 87.5 271 Z "></path><path fill="rgb(182,88,255)" stroke="rgb(182,88,255)" stroke-width="1" opacity="0.5333333333333333" d="M 88.5 276 L 89 278.5 L 88 278.5 L 88.5 276 Z "></path><path fill="rgb(182,88,255)" stroke="rgb(182,88,255)" stroke-width="1" opacity="0.5333333333333333" d="M 89.5 280 L 91 284.5 L 90 284.5 L 89.5 280 Z "></path><path fill="rgb(182,88,255)" stroke="rgb(182,88,255)" stroke-width="1" opacity="0.5333333333333333" d="M 91.5 286 L 93 289.5 L 92 289.5 L 91.5 286 Z "></path><path fill="rgb(182,88,255)" stroke="rgb(182,88,255)" stroke-width="1" opacity="0.5333333333333333" d="M 93.5 291 L 97 297.5 L 95 296.5 L 93.5 291 Z "></path><path fill="rgb(182,88,255)" stroke="rgb(182,88,255)" stroke-width="1" opacity="0.5333333333333333" d="M 97.5 299 Q 104.3 311.2 114.5 320 Q 125.1 329.9 140 335.5 L 138.5 336 Q 118.8 327.8 106 312.5 L 97.5 299 Z "></path><path fill="rgb(182,88,255)" stroke="rgb(182,88,255)" stroke-width="1" opacity="0.5333333333333333" d="M 144.5 337 L 150 338.5 L 147.5 339 L 144.5 338 L 144.5 337 Z "></path><path fill="rgb(182,88,255)" stroke="rgb(182,88,255)" stroke-width="1" opacity="0.5333333333333333" d="M 151.5 339 L 155 339.5 L 151.5 340 L 151.5 339 Z "></path><path fill="rgb(182,88,255)" stroke="rgb(182,88,255)" stroke-width="1" opacity="0.5333333333333333" d="M 157.5 340 L 161 340.5 L 157.5 341 L 157.5 340 Z "></path><path fill="rgb(249,106,92)" stroke="rgb(249,106,92)" stroke-width="1" opacity="0.6588235294117647" d="M 347.5 0 L 353 0.5 L 347.5 1 L 347.5 0 Z "></path><path fill="rgb(249,106,92)" stroke="rgb(249,106,92)" stroke-width="1" opacity="0.6588235294117647" d="M 355.5 1 L 359 1.5 L 355.5 2 L 355.5 1 Z "></path><path fill="rgb(249,106,92)" stroke="rgb(249,106,92)" stroke-width="1" opacity="0.6588235294117647" d="M 360.5 2 L 363 2.5 L 360.5 3 L 360.5 2 Z "></path><path fill="rgb(249,106,92)" stroke="rgb(249,106,92)" stroke-width="1" opacity="0.6588235294117647" d="M 364.5 3 L 372 5.5 L 370.5 6 L 364.5 4 L 364.5 3 Z "></path><path fill="rgb(249,106,92)" stroke="rgb(249,106,92)" stroke-width="1" opacity="0.6588235294117647" d="M 373.5 6 Q 395.3 14.2 408 31.5 Q 418.3 43.7 423 61.5 L 422 61.5 Q 414.5 34 394.5 19 Q 385.6 11.4 373.5 7 L 373.5 6 Z "></path><path fill="rgb(249,106,92)" stroke="rgb(249,106,92)" stroke-width="1" opacity="0.6588235294117647" d="M 423.5 63 L 424 65.5 L 423 65.5 L 423.5 63 Z "></path><path fill="rgb(249,106,92)" stroke="rgb(249,106,92)" stroke-width="1" opacity="0.6588235294117647" d="M 424.5 67 L 425 70.5 L 424 70.5 L 424.5 67 Z "></path><path fill="rgb(249,106,92)" stroke="rgb(249,106,92)" stroke-width="1" opacity="0.6588235294117647" d="M 425.5 72 L 426 78.5 L 425 78.5 L 425.5 72 Z "></path><path fill="rgb(249,106,92)" stroke="rgb(249,106,92)" stroke-width="1" opacity="0.6588235294117647" d="M 426.5 84 L 427 86.5 L 426 86.5 L 426.5 84 Z "></path><path fill="rgb(249,106,92)" stroke="rgb(249,106,92)" stroke-width="1" opacity="0.6588235294117647" d="M 425.5 92 L 426 98.5 L 425 98.5 L 425.5 92 Z "></path><path fill="rgb(249,106,92)" stroke="rgb(249,106,92)" stroke-width="1" opacity="0.6588235294117647" d="M 424.5 100 L 425 103.5 L 424 103.5 L 424.5 100 Z "></path><path fill="rgb(249,106,92)" stroke="rgb(249,106,92)" stroke-width="1" opacity="0.6588235294117647" d="M 423.5 105 L 424 107.5 L 423 107.5 L 423.5 105 Z "></path><path fill="rgb(249,106,92)" stroke="rgb(249,106,92)" stroke-width="1" opacity="0.6588235294117647" d="M 422.5 109 L 423 111.5 L 421.5 114 L 421 112.5 L 422.5 109 Z "></path><path fill="rgb(249,106,92)" stroke="rgb(249,106,92)" stroke-width="1" opacity="0.6588235294117647" d="M 420.5 115 L 421 116.5 Q 412.8 137.8 396.5 151 L 379.5 162 L 380.5 160 Q 395.5 153.5 405 141.5 Q 415.1 130.6 420.5 115 Z "></path><path fill="rgb(249,106,92)" stroke="rgb(249,106,92)" stroke-width="1" opacity="0.6588235294117647" d="M 374.5 163 L 376 163.5 L 372.5 165 L 372.5 164 L 374.5 163 Z "></path><path fill="rgb(249,106,92)" stroke="rgb(249,106,92)" stroke-width="1" opacity="0.6588235294117647" d="M 369.5 165 L 371 165.5 L 363.5 168 L 363.5 167 L 369.5 165 Z "></path><path fill="rgb(249,106,92)" stroke="rgb(249,106,92)" stroke-width="1" opacity="0.6588235294117647" d="M 358.5 168 L 362 168.5 L 358.5 169 L 358.5 168 Z "></path><path fill="rgb(249,106,92)" stroke="rgb(249,106,92)" stroke-width="1" opacity="0.6588235294117647" d="M 352.5 169 L 356 169.5 L 352.5 170 L 352.5 169 Z "></path><path fill="rgb(249,106,92)" stroke="rgb(249,106,92)" stroke-width="1" opacity="0.6588235294117647" d="M 166.5 170 L 170 170.5 L 166.5 171 L 166.5 170 Z "></path><path fill="rgb(249,106,92)" stroke="rgb(249,106,92)" stroke-width="1" opacity="0.6588235294117647" d="M 256.5 170 L 338 170.5 L 256.5 171 L 256.5 170 Z "></path><path fill="rgb(249,106,92)" stroke="rgb(249,106,92)" stroke-width="1" opacity="0.6588235294117647" d="M 341.5 170 L 351 170.5 L 341.5 171 L 341.5 170 Z "></path><path fill="rgb(255,115,97)" stroke="rgb(255,115,97)" stroke-width="1" opacity="0.996078431372549" d="M 390.5 16 L 391.5 18 L 390.5 16 Z "></path><path fill="rgb(255,115,97)" stroke="rgb(255,115,97)" stroke-width="1" opacity="0.996078431372549" d="M 394.5 19 L 397.5 23 L 394.5 19 Z "></path><path fill="rgb(255,115,97)" stroke="rgb(255,115,97)" stroke-width="1" opacity="0.996078431372549" d="M 403.5 28 L 406.5 32 L 403.5 28 Z "></path><path fill="rgb(255,115,97)" stroke="rgb(255,115,97)" stroke-width="1" opacity="0.996078431372549" d="M 425.5 79 L 426 81.5 L 425 81.5 L 425.5 79 Z "></path><path fill="rgb(255,115,97)" stroke="rgb(255,115,97)" stroke-width="1" opacity="0.996078431372549" d="M 425.5 88 L 426 91.5 L 425 91.5 L 425.5 88 Z "></path><path fill="rgb(255,115,97)" stroke="rgb(255,115,97)" stroke-width="1" opacity="0.996078431372549" d="M 411.5 132 L 410.5 134 L 411.5 132 Z "></path><path fill="rgb(255,115,97)" stroke="rgb(255,115,97)" stroke-width="1" opacity="0.996078431372549" d="M 408.5 136 L 407.5 138 L 408.5 136 Z "></path><path fill="rgb(255,115,97)" stroke="rgb(255,115,97)" stroke-width="1" opacity="0.996078431372549" d="M 404.5 141 L 397.5 149 L 404.5 141 Z "></path><path fill="rgb(255,115,97)" stroke="rgb(255,115,97)" stroke-width="1" opacity="0.996078431372549" d="M 393.5 151 L 391.5 154 L 393.5 151 Z "></path><path fill="rgb(255,115,97)" stroke="rgb(255,115,97)" stroke-width="1" opacity="0.996078431372549" d="M 386.5 156 L 385.5 158 L 386.5 156 Z "></path><path fill="rgb(255,115,97)" stroke="rgb(255,115,97)" stroke-width="1" opacity="0.996078431372549" d="M 338.5 170 L 341 170.5 L 338.5 171 L 338.5 170 Z "></path><path fill="rgb(182,89,255)" stroke="rgb(182,89,255)" stroke-width="1" opacity="1" d="M 163.5 171 L 256 171 L 256 341 L 161.5 341 Q 160.3 338.8 155.5 340 Q 124.3 333.2 107 312.5 Q 94.9 299.1 89 279.5 L 86 262.5 L 86 247.5 L 92 223.5 Q 99.4 205.9 112.5 194 Q 122.6 184.1 136.5 178 L 147.5 174 L 163.5 171 Z "></path><path fill="rgb(255,115,97)" stroke="rgb(255,115,97)" stroke-width="1" opacity="1" d="M 257 0 L 344.5 0 L 345.5 1 L 353.5 1 Q 385.4 7.1 403 27.5 Q 413.7 38.8 420 54.5 L 425 72.5 L 426 87.5 L 425 88.5 L 424 103.5 L 419 118.5 Q 410.3 138.3 394.5 151 L 373.5 164 L 350.5 170 L 257 170 L 257 0 Z "></path><path fill="rgb(255,115,97)" stroke="rgb(255,115,97)" stroke-width="1" opacity="1" d="M 171.5 170 L 256 170.5 L 171.5 171 L 171.5 170 Z "></path><path fill="rgb(0,206,127)" stroke="rgb(0,206,127)" stroke-width="1" opacity="0.996078431372549" d="M 166.5 341 L 256 341.5 L 166.5 342 L 166.5 341 Z "></path><path fill="rgb(0,206,127)" stroke="rgb(0,206,127)" stroke-width="1" opacity="0.996078431372549" d="M 127.5 353 L 126.5 355 L 127.5 353 Z "></path><path fill="rgb(0,206,127)" stroke="rgb(0,206,127)" stroke-width="1" opacity="0.996078431372549" d="M 124.5 355 L 123.5 357 L 124.5 355 Z "></path><path fill="rgb(0,206,127)" stroke="rgb(0,206,127)" stroke-width="1" opacity="0.996078431372549" d="M 121.5 357 L 119.5 360 L 121.5 357 Z "></path><path fill="rgb(0,206,127)" stroke="rgb(0,206,127)" stroke-width="1" opacity="0.996078431372549" d="M 116.5 361 L 112.5 366 L 116.5 361 Z "></path><path fill="rgb(0,206,127)" stroke="rgb(0,206,127)" stroke-width="1" opacity="0.996078431372549" d="M 107.5 370 L 105.5 373 L 107.5 370 Z "></path><path fill="rgb(0,206,127)" stroke="rgb(0,206,127)" stroke-width="1" opacity="0.996078431372549" d="M 100.5 379 L 99.5 381 L 100.5 379 Z "></path><path fill="rgb(0,206,127)" stroke="rgb(0,206,127)" stroke-width="1" opacity="0.996078431372549" d="M 86.5 417 L 87 419.5 L 86 419.5 L 86.5 417 Z "></path><path fill="rgb(0,206,127)" stroke="rgb(0,206,127)" stroke-width="1" opacity="0.996078431372549" d="M 86.5 430 L 87 433.5 L 86 433.5 L 86.5 430 Z "></path><path fill="rgb(0,206,127)" stroke="rgb(0,206,127)" stroke-width="1" opacity="0.996078431372549" d="M 243.5 471 L 242.5 473 L 243.5 471 Z "></path><path fill="rgb(0,206,127)" stroke="rgb(0,206,127)" stroke-width="1" opacity="0.996078431372549" d="M 99.5 472 L 100.5 474 L 99.5 472 Z "></path><path fill="rgb(0,206,127)" stroke="rgb(0,206,127)" stroke-width="1" opacity="0.996078431372549" d="M 241.5 474 L 240.5 476 L 241.5 474 Z "></path><path fill="rgb(0,206,127)" stroke="rgb(0,206,127)" stroke-width="1" opacity="0.996078431372549" d="M 101.5 475 L 102.5 477 L 101.5 475 Z "></path><path fill="rgb(0,206,127)" stroke="rgb(0,206,127)" stroke-width="1" opacity="0.996078431372549" d="M 238.5 478 L 237.5 480 L 238.5 478 Z "></path><path fill="rgb(0,206,127)" stroke="rgb(0,206,127)" stroke-width="1" opacity="0.996078431372549" d="M 104.5 479 L 106.5 482 L 104.5 479 Z "></path><path fill="rgb(0,206,127)" stroke="rgb(0,206,127)" stroke-width="1" opacity="0.996078431372549" d="M 234.5 483 L 227.5 491 L 234.5 483 Z "></path><path fill="rgb(0,206,127)" stroke="rgb(0,206,127)" stroke-width="1" opacity="0.996078431372549" d="M 116.5 491 L 119.5 495 L 116.5 491 Z "></path><path fill="rgb(0,206,127)" stroke="rgb(0,206,127)" stroke-width="1" opacity="0.996078431372549" d="M 223.5 493 L 222.5 495 L 223.5 493 Z "></path><path fill="rgb(0,206,127)" stroke="rgb(0,206,127)" stroke-width="1" opacity="0.996078431372549" d="M 163.5 511 L 166 511.5 L 163.5 512 L 163.5 511 Z "></path><path fill="rgb(0,206,127)" stroke="rgb(0,206,127)" stroke-width="1" opacity="0.996078431372549" d="M 176.5 511 L 180 511.5 L 176.5 512 L 176.5 511 Z "></path><path fill="rgb(0,207,127)" stroke="rgb(0,207,127)" stroke-width="1" opacity="1" d="M 160.5 342 L 256 342 L 256 435.5 L 253 450.5 L 246 467.5 Q 237.4 482.4 224.5 493 Q 211.6 503.6 193.5 509 L 183.5 511 L 176.5 511 L 175.5 512 L 166.5 512 L 165.5 511 L 152.5 510 L 139.5 506 Q 119.8 497.8 107 482.5 Q 96.8 471.2 91 455.5 L 87 439.5 L 86 420.5 L 87 419.5 L 88 407.5 L 93 392.5 L 108 369 Q 110.7 370.1 110 367.5 Q 128.3 347.8 160.5 342 Z "></path><path fill="rgb(254,75,15)" stroke="rgb(254,75,15)" stroke-width="1" opacity="0.49019607843137253" d="M 157.5 0 L 163 0.5 L 157.5 1 L 157.5 0 Z "></path><path fill="rgb(254,75,15)" stroke="rgb(254,75,15)" stroke-width="1" opacity="0.49019607843137253" d="M 152.5 1 L 156 1.5 L 152.5 2 L 152.5 1 Z "></path><path fill="rgb(254,75,15)" stroke="rgb(254,75,15)" stroke-width="1" opacity="0.49019607843137253" d="M 148.5 2 L 151 2.5 L 148.5 3 L 148.5 2 Z "></path><path fill="rgb(254,75,15)" stroke="rgb(254,75,15)" stroke-width="1" opacity="0.49019607843137253" d="M 144.5 3 L 147 3.5 L 144.5 4 L 144.5 3 Z "></path><path fill="rgb(254,75,15)" stroke="rgb(254,75,15)" stroke-width="1" opacity="0.49019607843137253" d="M 141.5 4 L 143 4.5 L 139.5 6 L 139.5 5 L 141.5 4 Z "></path><path fill="rgb(254,75,15)" stroke="rgb(254,75,15)" stroke-width="1" opacity="0.49019607843137253" d="M 136.5 6 L 138 6.5 L 134.5 8 L 134.5 7 L 136.5 6 Z "></path><path fill="rgb(254,75,15)" stroke="rgb(254,75,15)" stroke-width="1" opacity="0.49019607843137253" d="M 129.5 9 L 131 9.5 L 128.5 11 L 129.5 9 Z "></path><path fill="rgb(254,75,15)" stroke="rgb(254,75,15)" stroke-width="1" opacity="0.49019607843137253" d="M 126.5 11 L 125.5 13 L 112.5 23 L 117.5 17 L 126.5 11 Z "></path><path fill="rgb(254,75,15)" stroke="rgb(254,75,15)" stroke-width="1" opacity="0.49019607843137253" d="M 110.5 23 L 107 27.5 L 99.5 37 L 101 34.5 L 110.5 23 Z "></path><path fill="rgb(254,75,15)" stroke="rgb(254,75,15)" stroke-width="1" opacity="0.49019607843137253" d="M 98.5 38 L 97.5 40 L 98.5 38 Z "></path><path fill="rgb(254,75,15)" stroke="rgb(254,75,15)" stroke-width="1" opacity="0.49019607843137253" d="M 96.5 41 L 96 42.5 L 89.5 57 L 89 55.5 L 96.5 41 Z "></path><path fill="rgb(254,75,15)" stroke="rgb(254,75,15)" stroke-width="1" opacity="0.49019607843137253" d="M 87.5 61 L 88 63.5 L 87 63.5 L 87.5 61 Z "></path><path fill="rgb(254,75,15)" stroke="rgb(254,75,15)" stroke-width="1" opacity="0.49019607843137253" d="M 86.5 65 L 87 67.5 L 86 67.5 L 86.5 65 Z "></path><path fill="rgb(254,75,15)" stroke="rgb(254,75,15)" stroke-width="1" opacity="0.49019607843137253" d="M 85.5 69 L 86 73.5 L 85 73.5 L 85.5 69 Z "></path><path fill="rgb(254,75,15)" stroke="rgb(254,75,15)" stroke-width="1" opacity="0.49019607843137253" d="M 84.5 76 L 85 91.5 L 84 91.5 L 84.5 76 Z "></path><path fill="rgb(254,75,15)" stroke="rgb(254,75,15)" stroke-width="1" opacity="0.49019607843137253" d="M 85.5 95 L 86 99.5 L 85 99.5 L 85.5 95 Z "></path><path fill="rgb(254,75,15)" stroke="rgb(254,75,15)" stroke-width="1" opacity="0.49019607843137253" d="M 86.5 101 L 87 104.5 L 86 104.5 L 86.5 101 Z "></path><path fill="rgb(254,75,15)" stroke="rgb(254,75,15)" stroke-width="1" opacity="0.49019607843137253" d="M 87.5 106 L 88 108.5 L 87 108.5 L 87.5 106 Z "></path><path fill="rgb(254,75,15)" stroke="rgb(254,75,15)" stroke-width="1" opacity="0.49019607843137253" d="M 90.5 116 L 93 121.5 L 92 121.5 L 90.5 116 Z "></path><path fill="rgb(254,75,15)" stroke="rgb(254,75,15)" stroke-width="1" opacity="0.49019607843137253" d="M 95.5 127 L 98 130.5 L 96 129.5 L 95.5 127 Z "></path><path fill="rgb(254,75,15)" stroke="rgb(254,75,15)" stroke-width="1" opacity="0.49019607843137253" d="M 98.5 132 L 115.5 151 L 128 159.5 L 126.5 159 Q 112.1 151.9 103 139.5 L 98.5 132 Z "></path><path fill="rgb(254,75,15)" stroke="rgb(254,75,15)" stroke-width="1" opacity="0.49019607843137253" d="M 129.5 160 L 141 165.5 L 139.5 166 L 130.5 162 L 129.5 160 Z "></path><path fill="rgb(254,75,15)" stroke="rgb(254,75,15)" stroke-width="1" opacity="0.49019607843137253" d="M 145.5 167 L 148 167.5 L 145.5 168 L 145.5 167 Z "></path><path fill="rgb(254,75,15)" stroke="rgb(254,75,15)" stroke-width="1" opacity="0.49019607843137253" d="M 149.5 168 L 153 168.5 L 149.5 169 L 149.5 168 Z "></path><path fill="rgb(254,75,15)" stroke="rgb(254,75,15)" stroke-width="1" opacity="0.49019607843137253" d="M 154.5 169 L 158 169.5 L 154.5 170 L 154.5 169 Z "></path><path fill="rgb(254,75,15)" stroke="rgb(254,75,15)" stroke-width="1" opacity="0.49019607843137253" d="M 160.5 170 L 166 170.5 L 160.5 171 L 160.5 170 Z "></path><path fill="rgb(0,190,255)" stroke="rgb(0,190,255)" stroke-width="1" opacity="0.49019607843137253" d="M 328.5 171 L 333 171.5 L 328.5 172 L 328.5 171 Z "></path><path fill="rgb(0,190,255)" stroke="rgb(0,190,255)" stroke-width="1" opacity="0.49019607843137253" d="M 351.5 171 L 356 171.5 L 351.5 172 L 351.5 171 Z "></path><path fill="rgb(0,190,255)" stroke="rgb(0,190,255)" stroke-width="1" opacity="0.49019607843137253" d="M 323.5 172 L 326 172.5 L 323.5 173 L 323.5 172 Z "></path><path fill="rgb(0,190,255)" stroke="rgb(0,190,255)" stroke-width="1" opacity="0.49019607843137253" d="M 358.5 172 L 361 172.5 L 358.5 173 L 358.5 172 Z "></path><path fill="rgb(0,190,255)" stroke="rgb(0,190,255)" stroke-width="1" opacity="0.49019607843137253" d="M 319.5 173 L 322 173.5 L 319.5 174 L 319.5 173 Z "></path><path fill="rgb(0,190,255)" stroke="rgb(0,190,255)" stroke-width="1" opacity="0.49019607843137253" d="M 362.5 173 L 365 173.5 L 362.5 174 L 362.5 173 Z "></path><path fill="rgb(0,190,255)" stroke="rgb(0,190,255)" stroke-width="1" opacity="0.49019607843137253" d="M 314.5 174 L 317 174.5 L 310.5 177 L 310.5 176 L 314.5 174 Z "></path><path fill="rgb(0,190,255)" stroke="rgb(0,190,255)" stroke-width="1" opacity="0.49019607843137253" d="M 366.5 174 Q 372 173.5 374 176.5 L 372.5 177 L 366.5 175 L 366.5 174 Z "></path><path fill="rgb(0,190,255)" stroke="rgb(0,190,255)" stroke-width="1" opacity="0.49019607843137253" d="M 307.5 177 L 309 177.5 Q 289.5 185.5 277 200.5 Q 267.9 210.9 262.5 225 L 262 223.5 Q 270.6 203.1 286.5 190 Q 295.5 182 307.5 177 Z "></path><path fill="rgb(0,190,255)" stroke="rgb(0,190,255)" stroke-width="1" opacity="0.49019607843137253" d="M 375.5 177 Q 395.6 184.9 408 200.5 L 415 210.5 L 413 209.5 L 399.5 193 Q 389.9 183.1 375.5 178 L 375.5 177 Z "></path><path fill="rgb(0,190,255)" stroke="rgb(0,190,255)" stroke-width="1" opacity="0.49019607843137253" d="M 415.5 212 L 421 222.5 L 420 222.5 L 415.5 212 Z "></path><path fill="rgb(0,190,255)" stroke="rgb(0,190,255)" stroke-width="1" opacity="0.49019607843137253" d="M 421.5 224 L 424 231.5 L 423 231.5 L 421.5 224 Z "></path><path fill="rgb(0,190,255)" stroke="rgb(0,190,255)" stroke-width="1" opacity="0.49019607843137253" d="M 259.5 232 L 260 234.5 L 259 234.5 L 259.5 232 Z "></path><path fill="rgb(0,190,255)" stroke="rgb(0,190,255)" stroke-width="1" opacity="0.49019607843137253" d="M 258.5 236 L 259 238.5 L 258 238.5 L 258.5 236 Z "></path><path fill="rgb(0,190,255)" stroke="rgb(0,190,255)" stroke-width="1" opacity="0.49019607843137253" d="M 425.5 236 L 426 239.5 L 425 239.5 L 425.5 236 Z "></path><path fill="rgb(0,190,255)" stroke="rgb(0,190,255)" stroke-width="1" opacity="0.49019607843137253" d="M 257.5 240 L 258 244.5 L 257 244.5 L 257.5 240 Z "></path><path fill="rgb(0,190,255)" stroke="rgb(0,190,255)" stroke-width="1" opacity="0.49019607843137253" d="M 426.5 241 L 427 246.5 L 426 246.5 L 426.5 241 Z "></path><path fill="rgb(0,190,255)" stroke="rgb(0,190,255)" stroke-width="1" opacity="0.49019607843137253" d="M 427.5 250 L 428 261.5 L 427 261.5 L 427.5 250 Z "></path><path fill="rgb(0,190,255)" stroke="rgb(0,190,255)" stroke-width="1" opacity="0.49019607843137253" d="M 426.5 266 L 427 270.5 L 426 270.5 L 426.5 266 Z "></path><path fill="rgb(0,190,255)" stroke="rgb(0,190,255)" stroke-width="1" opacity="0.49019607843137253" d="M 257.5 267 L 258 271.5 L 257 271.5 L 257.5 267 Z "></path><path fill="rgb(0,190,255)" stroke="rgb(0,190,255)" stroke-width="1" opacity="0.49019607843137253" d="M 425.5 272 L 426 275.5 L 425 275.5 L 425.5 272 Z "></path><path fill="rgb(0,190,255)" stroke="rgb(0,190,255)" stroke-width="1" opacity="0.49019607843137253" d="M 258.5 273 L 259 275.5 L 258 275.5 L 258.5 273 Z "></path><path fill="rgb(0,190,255)" stroke="rgb(0,190,255)" stroke-width="1" opacity="0.49019607843137253" d="M 259.5 277 L 260 279.5 L 259 279.5 L 259.5 277 Z "></path><path fill="rgb(0,190,255)" stroke="rgb(0,190,255)" stroke-width="1" opacity="0.49019607843137253" d="M 424.5 277 L 425 279.5 L 421.5 288 L 421 286.5 L 424.5 277 Z "></path><path fill="rgb(0,190,255)" stroke="rgb(0,190,255)" stroke-width="1" opacity="0.49019607843137253" d="M 262.5 287 L 265 292.5 L 264 292.5 L 262.5 287 Z "></path><path fill="rgb(0,190,255)" stroke="rgb(0,190,255)" stroke-width="1" opacity="0.49019607843137253" d="M 420.5 289 L 421 290.5 L 415.5 300 L 416 298.5 L 420.5 289 Z "></path><path fill="rgb(0,190,255)" stroke="rgb(0,190,255)" stroke-width="1" opacity="0.49019607843137253" d="M 266.5 296 Q 274.1 310.4 286 320.5 L 276 311.5 L 268 300.5 L 266.5 296 Z "></path><path fill="rgb(0,190,255)" stroke="rgb(0,190,255)" stroke-width="1" opacity="0.49019607843137253" d="M 414.5 301 L 413.5 303 L 414.5 301 Z "></path><path fill="rgb(0,190,255)" stroke="rgb(0,190,255)" stroke-width="1" opacity="0.49019607843137253" d="M 412.5 304 L 411 306.5 L 398.5 321 Q 388.3 330.8 373.5 336 L 373.5 335 Q 393.5 327.5 406 312.5 L 412.5 304 Z "></path><path fill="rgb(0,190,255)" stroke="rgb(0,190,255)" stroke-width="1" opacity="0.49019607843137253" d="M 287.5 321 Q 294 328.5 304 332.5 L 302.5 332 Q 291.7 328.5 287.5 321 Z "></path><path fill="rgb(0,190,255)" stroke="rgb(0,190,255)" stroke-width="1" opacity="0.49019607843137253" d="M 305.5 333 L 311 335.5 L 309.5 336 L 305.5 334 L 305.5 333 Z "></path><path fill="rgb(0,190,255)" stroke="rgb(0,190,255)" stroke-width="1" opacity="0.49019607843137253" d="M 318.5 338 L 321 338.5 L 318.5 339 L 318.5 338 Z "></path><path fill="rgb(0,190,255)" stroke="rgb(0,190,255)" stroke-width="1" opacity="0.49019607843137253" d="M 363.5 338 L 366 338.5 L 363.5 339 L 363.5 338 Z "></path><path fill="rgb(0,190,255)" stroke="rgb(0,190,255)" stroke-width="1" opacity="0.49019607843137253" d="M 322.5 339 L 326 339.5 L 322.5 340 L 322.5 339 Z "></path><path fill="rgb(0,190,255)" stroke="rgb(0,190,255)" stroke-width="1" opacity="0.49019607843137253" d="M 358.5 339 L 362 339.5 L 358.5 340 L 358.5 339 Z "></path><path fill="rgb(0,190,255)" stroke="rgb(0,190,255)" stroke-width="1" opacity="0.49019607843137253" d="M 328.5 340 L 332 340.5 L 328.5 341 L 328.5 340 Z "></path><path fill="rgb(0,190,255)" stroke="rgb(0,190,255)" stroke-width="1" opacity="0.49019607843137253" d="M 352.5 340 L 356 340.5 L 352.5 341 L 352.5 340 Z "></path><path fill="rgb(0,190,255)" stroke="rgb(0,190,255)" stroke-width="1" opacity="0.49019607843137253" d="M 334.5 341 L 350 341.5 L 334.5 342 L 334.5 341 Z "></path><path fill="rgb(255,77,18)" stroke="rgb(255,77,18)" stroke-width="1" opacity="0.996078431372549" d="M 121.5 15 L 120.5 17 L 121.5 15 Z "></path><path fill="rgb(255,77,18)" stroke="rgb(255,77,18)" stroke-width="1" opacity="0.996078431372549" d="M 117.5 18 L 115.5 21 L 117.5 18 Z "></path><path fill="rgb(255,77,18)" stroke="rgb(255,77,18)" stroke-width="1" opacity="0.996078431372549" d="M 111.5 23 L 107.5 28 L 111.5 23 Z "></path><path fill="rgb(255,77,18)" stroke="rgb(255,77,18)" stroke-width="1" opacity="0.996078431372549" d="M 103.5 32 L 102.5 34 L 103.5 32 Z "></path><path fill="rgb(255,77,18)" stroke="rgb(255,77,18)" stroke-width="1" opacity="0.996078431372549" d="M 100.5 36 L 99.5 38 L 100.5 36 Z "></path><path fill="rgb(255,77,18)" stroke="rgb(255,77,18)" stroke-width="1" opacity="0.996078431372549" d="M 98.5 39 L 97.5 41 L 98.5 39 Z "></path><path fill="rgb(255,77,18)" stroke="rgb(255,77,18)" stroke-width="1" opacity="0.996078431372549" d="M 85.5 92 L 86 94.5 L 85 94.5 L 85.5 92 Z "></path><path fill="rgb(255,77,18)" stroke="rgb(255,77,18)" stroke-width="1" opacity="0.996078431372549" d="M 95.5 126 L 96.5 128 L 95.5 126 Z "></path><path fill="rgb(255,77,18)" stroke="rgb(255,77,18)" stroke-width="1" opacity="0.996078431372549" d="M 98.5 131 L 99.5 133 L 98.5 131 Z "></path><path fill="rgb(255,77,18)" stroke="rgb(255,77,18)" stroke-width="1" opacity="0.996078431372549" d="M 104.5 139 L 106.5 142 L 104.5 139 Z "></path><path fill="rgb(255,77,18)" stroke="rgb(255,77,18)" stroke-width="1" opacity="0.996078431372549" d="M 114.5 149 L 115.5 151 L 114.5 149 Z "></path><path fill="rgb(255,77,18)" stroke="rgb(255,77,18)" stroke-width="1" opacity="0.996078431372549" d="M 122.5 155 L 123.5 157 L 122.5 155 Z "></path><path fill="rgb(0,188,255)" stroke="rgb(0,188,255)" stroke-width="1" opacity="0.996078431372549" d="M 297.5 183 L 296.5 185 L 297.5 183 Z "></path><path fill="rgb(0,188,255)" stroke="rgb(0,188,255)" stroke-width="1" opacity="0.996078431372549" d="M 386.5 183 L 387.5 185 L 386.5 183 Z "></path><path fill="rgb(0,188,255)" stroke="rgb(0,188,255)" stroke-width="1" opacity="0.996078431372549" d="M 294.5 185 L 293.5 187 L 294.5 185 Z "></path><path fill="rgb(0,188,255)" stroke="rgb(0,188,255)" stroke-width="1" opacity="0.996078431372549" d="M 389.5 185 L 390.5 187 L 389.5 185 Z "></path><path fill="rgb(0,188,255)" stroke="rgb(0,188,255)" stroke-width="1" opacity="0.996078431372549" d="M 290.5 188 L 289.5 190 L 290.5 188 Z "></path><path fill="rgb(0,188,255)" stroke="rgb(0,188,255)" stroke-width="1" opacity="0.996078431372549" d="M 393.5 188 L 395.5 191 L 393.5 188 Z "></path><path fill="rgb(0,188,255)" stroke="rgb(0,188,255)" stroke-width="1" opacity="0.996078431372549" d="M 285.5 192 L 277.5 201 L 285.5 192 Z "></path><path fill="rgb(0,188,255)" stroke="rgb(0,188,255)" stroke-width="1" opacity="0.996078431372549" d="M 399.5 193 L 405.5 200 L 399.5 193 Z "></path><path fill="rgb(0,188,255)" stroke="rgb(0,188,255)" stroke-width="1" opacity="0.996078431372549" d="M 275.5 203 L 273.5 206 L 275.5 203 Z "></path><path fill="rgb(0,188,255)" stroke="rgb(0,188,255)" stroke-width="1" opacity="0.996078431372549" d="M 408.5 203 L 409.5 205 L 408.5 203 Z "></path><path fill="rgb(0,188,255)" stroke="rgb(0,188,255)" stroke-width="1" opacity="0.996078431372549" d="M 411.5 207 L 412.5 209 L 411.5 207 Z "></path><path fill="rgb(0,188,255)" stroke="rgb(0,188,255)" stroke-width="1" opacity="0.996078431372549" d="M 413.5 210 L 414.5 212 L 413.5 210 Z "></path><path fill="rgb(0,188,255)" stroke="rgb(0,188,255)" stroke-width="1" opacity="0.996078431372549" d="M 257.5 245 L 258 247.5 L 257 247.5 L 257.5 245 Z "></path><path fill="rgb(0,188,255)" stroke="rgb(0,188,255)" stroke-width="1" opacity="0.996078431372549" d="M 426.5 247 L 427 249.5 L 426 249.5 L 426.5 247 Z "></path><path fill="rgb(0,188,255)" stroke="rgb(0,188,255)" stroke-width="1" opacity="0.996078431372549" d="M 426.5 262 L 427 265.5 L 426 265.5 L 426.5 262 Z "></path><path fill="rgb(0,188,255)" stroke="rgb(0,188,255)" stroke-width="1" opacity="0.996078431372549" d="M 257.5 264 L 258 266.5 L 257 266.5 L 257.5 264 Z "></path><path fill="rgb(0,188,255)" stroke="rgb(0,188,255)" stroke-width="1" opacity="0.996078431372549" d="M 414.5 300 L 413.5 302 L 414.5 300 Z "></path><path fill="rgb(0,188,255)" stroke="rgb(0,188,255)" stroke-width="1" opacity="0.996078431372549" d="M 412.5 303 L 411.5 305 L 412.5 303 Z "></path><path fill="rgb(0,188,255)" stroke="rgb(0,188,255)" stroke-width="1" opacity="0.996078431372549" d="M 273.5 306 L 275.5 309 L 273.5 306 Z "></path><path fill="rgb(0,188,255)" stroke="rgb(0,188,255)" stroke-width="1" opacity="0.996078431372549" d="M 409.5 307 L 408.5 309 L 409.5 307 Z "></path><path fill="rgb(0,188,255)" stroke="rgb(0,188,255)" stroke-width="1" opacity="0.996078431372549" d="M 277.5 311 L 286.5 321 L 277.5 311 Z "></path><path fill="rgb(0,188,255)" stroke="rgb(0,188,255)" stroke-width="1" opacity="0.996078431372549" d="M 405.5 312 L 398.5 320 L 405.5 312 Z "></path><path fill="rgb(0,188,255)" stroke="rgb(0,188,255)" stroke-width="1" opacity="0.996078431372549" d="M 289.5 322 L 291.5 325 L 289.5 322 Z "></path><path fill="rgb(0,188,255)" stroke="rgb(0,188,255)" stroke-width="1" opacity="0.996078431372549" d="M 394.5 322 L 392.5 325 L 394.5 322 Z "></path><path fill="rgb(0,188,255)" stroke="rgb(0,188,255)" stroke-width="1" opacity="0.996078431372549" d="M 293.5 325 L 294.5 327 L 293.5 325 Z "></path><path fill="rgb(0,188,255)" stroke="rgb(0,188,255)" stroke-width="1" opacity="0.996078431372549" d="M 390.5 325 L 389.5 327 L 390.5 325 Z "></path><path fill="rgb(0,188,255)" stroke="rgb(0,188,255)" stroke-width="1" opacity="0.996078431372549" d="M 296.5 327 L 297.5 329 L 296.5 327 Z "></path><path fill="rgb(0,188,255)" stroke="rgb(0,188,255)" stroke-width="1" opacity="0.996078431372549" d="M 387.5 327 L 386.5 329 L 387.5 327 Z "></path><path fill="rgb(255,77,18)" stroke="rgb(255,77,18)" stroke-width="1" opacity="1" d="M 165.5 0 L 255.5 0 L 257 1.5 L 257 170 L 160.5 170 Q 125.8 164.2 107 142.5 Q 96.4 130.6 90 114.5 L 86 99.5 L 85 76.5 L 87 65.5 L 93 48.5 Q 101.1 32.1 114.5 21 L 126.5 12 L 141.5 5 L 165.5 0 Z "></path><path fill="rgb(0,188,255)" stroke="rgb(0,188,255)" stroke-width="1" opacity="1" d="M 335.5 171 L 355.5 172 L 373.5 177 Q 394.6 185.9 408 202.5 Q 418.6 215.4 424 233.5 L 427 250.5 L 427 261.5 L 424 278.5 L 415 299.5 Q 407.1 312.6 395.5 322 Q 383.1 332.6 365.5 338 L 350.5 341 L 333.5 341 L 318.5 338 L 303.5 332 Q 287.3 323.3 276 309.5 Q 266.2 298.3 261 282.5 L 257 263.5 L 257 248.5 L 261 229.5 L 266 217.5 Q 274.8 201.3 288.5 190 L 310.5 177 L 327.5 172 Q 333.8 173.8 335.5 171 Z "></path></svg>