<svg data-name="Layer 1" xmlns="http://www.w3.org/2000/svg" viewBox="0 0 342.53 512"><path d="M171.87 256a85.33 85.33 0 1185.33 85.33A85.33 85.33 0 01171.87 256z" fill="#00bcff"/><path d="M1.2 426.67a85.33 85.33 0 0185.33-85.34l45.48-24 39.85 24v85.34a85.33 85.33 0 01-170.66 0z" fill="#00cf7f"/><path d="M171.87 0l-46.44 80.67 46.44 90H256A85.34 85.34 0 00256 0z" fill="#ff7361"/><path d="M0 85.33a85.34 85.34 0 0085.33 85.34l45.27 17.48 41.26-17.48V0H85.33A85.34 85.34 0 000 85.33z" fill="#ff4d12"/><path d="M1.2 256a85.33 85.33 0 0085.33 85.33h85.33V170.67H86.53A85.33 85.33 0 001.2 256z" fill="#b659ff"/></svg>