<svg data-name="Layer 1" xmlns="http://www.w3.org/2000/svg" viewBox="0 0 512 512"><defs><linearGradient id="a" x1="131.91" y1="373.58" x2="198.42" y2="307.07" gradientTransform="matrix(3.37 0 0 -3.37 -251.05 1473.58)" gradientUnits="userSpaceOnUse"><stop offset="0" stop-color="#a63823"/><stop offset=".17" stop-color="#a63823" stop-opacity=".86"/><stop offset=".52" stop-color="#a63823" stop-opacity=".51"/><stop offset=".97" stop-color="#a63823" stop-opacity="0"/></linearGradient></defs><g data-name="Layer 2"><g data-name="76.git"><circle cx="256" cy="256" r="256" fill="#f15233"/><path d="M502.53 325.29a256.3 256.3 0 01-213.72 184.62L154.58 375.68l15.69-101.89C127.56 203.25 213 205.91 213 205.91l29.58-15.8 23.14 23.11 21.86-21.69-27.79-26.48 21-34.66L335 184.72l10.34-16.64z" fill="url(#a)"/><g fill="#fff"><path d="M242.53 190.11a82.76 82.76 0 01-30.72 6.74c-30.32-17.72-71.55.74-71.55 39.55 0 14.48 9.13 34.29 23.38 39.14v.67c-10.58 4.72-13.48 28.9.57 37.59v.57c-15.39 5.12-25.53 15-25.53 32.11 0 29.4 27.52 37.59 51.6 37.59 29.34 0 51.17-10.68 51.17-43.42 0-40.42-57-25.43-57-47.16 0-7.71 4-10.68 11.08-12.19 23.58-4.38 38.1-22.84 38.1-47a34.6 34.6 0 00-2.26-12 104.88 104.88 0 0011.12-3.4zm-52.82 140c9.6 0 23.24 1.71 23.24 14.28s-11 15-21.25 15c-9.77 0-24.42-1.55-24.42-14.38s12.46-14.9 22.43-14.9zM187.92 256c-12.43 0-17.65-7.41-17.65-19.3 0-28.16 34.4-27.89 34.4-.27 0 11.59-4.52 19.6-16.85 19.6zM373.32 312.29v-28a30.42 30.42 0 01-16.5 4.75c-10.45 0-12.3-10.3-12.3-18.76v-52c17.89 0 28.77.57 28.77.57v-27.19h-28.77a162.9 162.9 0 01.84-23.58h-32.1a139.72 139.72 0 01.85 23.58h-13.48V219a44.83 44.83 0 0113.48-.58v.58h-.17v49.9c0 24.86 3.37 49 33.68 49a54.44 54.44 0 0025.67-5.59zM271.9 128a20.89 20.89 0 000 41.67c10.88 0 19.06-10.11 19.06-20.68S283 128 271.9 128zM256.17 191.53c1 8.45.91 114.12 0 124.63h31.32c-.9-10.11-1-116.11 0-124.46z"/></g></g></g></svg>