<svg data-name="Layer 1" xmlns="http://www.w3.org/2000/svg" viewBox="0 0 512 512"><path d="M0 0h512v512H0z" fill="#ffdf00"/><path d="M343.93 400c10.32 16.84 23.73 29.22 47.47 29.22 19.93 0 32.67-10 32.67-23.73 0-16.5-13.09-22.34-35-31.94l-12-5.16c-34.72-14.79-57.78-33.32-57.78-72.5 0-36.08 27.49-63.55 70.46-63.55 30.59 0 52.58 10.65 68.43 38.52l-37.47 24.06c-8.25-14.79-17.15-20.62-31-20.62-14.09 0-23 8.94-23 20.62 0 14.43 8.94 20.28 29.58 29.22l12 5.15c40.87 17.53 64 35.4 64 75.58 0 43.32-34 67.05-79.72 67.05-44.68 0-73.55-21.3-87.68-49.2zm-170 4.17c7.56 13.41 14.44 24.75 31 24.75 15.8 0 25.78-6.19 25.78-30.23v-163.6h48.11v164.25c0 49.81-29.21 72.49-71.84 72.49-38.53 0-60.83-19.94-72.18-43.95z"/></svg>