<svg data-name="logo dark transparent" xmlns="http://www.w3.org/2000/svg" viewBox="0 0 313.29 335.21"><path d="M35.45 245.74v-10L56 228.27a8.23 8.23 0 003.6-2.2 6 6 0 001.47-4.33V77.47a6 6 0 00-1.4-4.26A8.2 8.2 0 0056 71.07l-20.53-6.8v-9.73h68.66l44.67 126.27 6.67 23.2h2.13l51.6-149.47h67.73v9.73l-20.26 6.8a9.44 9.44 0 00-3.74 2.2 5.59 5.59 0 00-1.6 4.2v145.07a6 6 0 001.47 4.4 9.78 9.78 0 003.87 2.27l20.26 6.53v10H198v-10l20.26-6.53a8.87 8.87 0 003.81-2.2 6.06 6.06 0 001.53-4.47V69.07h-2.53l-6.27 19.74-45.49 127.33-12.66 29.6h-13.6l-55.6-156.8-6.14-19.87h-2.13v152.67a5.71 5.71 0 001.47 4.33 10.16 10.16 0 003.6 2.2l20.13 7.47v10z" fill="#fff"/><path fill="#fff" d="M18.45 138.05h282.4v32.5H18.45z"/><path d="M26 165.25v-1.2l2.37-.9a.91.91 0 00.42-.26.77.77 0 00.17-.52v-17.32a.78.78 0 00-.16-.51.88.88 0 00-.43-.25l-2.37-.82v-1.17h7.93l5.16 15.15.77 2.79h.24l6-17.94h7.82v1.17l-2.34.82a1.06 1.06 0 00-.43.26.68.68 0 00-.18.5v17.41a.75.75 0 00.16.53 1.13 1.13 0 00.45.27l2.34.79v1.2h-9.17v-1.2l2.34-.79a1 1 0 00.44-.26.78.78 0 00.17-.54v-18.41h-.29l-.72 2.36-5.25 15.28-1.44 3.56h-1.59L32 146.43l-.71-2.38H31v18.32a.74.74 0 00.17.52 1.11 1.11 0 00.42.26l2.32.9v1.2zM57.91 165.25v-1.2l1.57-.72a1.51 1.51 0 00.78-.88l6.27-16.68 1.82-3.77h1.74l7.77 20.54a2.32 2.32 0 00.3.52.93.93 0 00.44.36l1.63.68v1.2h-8.16v-1.2l2.59-.93-5.51-14.67-.6-2.16h-.27L62.2 163l2.62 1v1.2zm6.16-8.05l.75-2.23h7.1l.75 2.23zM84.26 165.25v-1.2l2.37-.79a.89.89 0 00.43-.26.77.77 0 00.16-.54v-17.41a.73.73 0 00-.17-.51.89.89 0 00-.42-.25l-2.37-.82v-1.17h9a13.77 13.77 0 014.12.51 6.34 6.34 0 012.47 1.36 4.57 4.57 0 011.2 1.88 6.67 6.67 0 01.33 2.06 6.16 6.16 0 01-.8 3.21 6.55 6.55 0 01-2 2.12 7.25 7.25 0 01-2.35 1.05l-2.5 1.06-3.54-.75.14-1.71a4.69 4.69 0 00.66.1c.35 0 .72.07 1.12.09h.93a5.37 5.37 0 002.74-.63 4.1 4.1 0 001.64-1.65 4.91 4.91 0 00.53-2.23 4.24 4.24 0 00-1.32-3.48 6 6 0 00-3.88-1.08h-2.3v18.24a.78.78 0 00.17.54.91.91 0 00.42.26l2.43.79v1.2zm21.48 0H102a4.9 4.9 0 01-1.54-.19 2 2 0 01-.86-.63c-.23-.3-.54-.71-.91-1.25l-5.52-7.92 3.12-1 5.81 8a3.73 3.73 0 00.54.62 1.85 1.85 0 00.72.46l2.37.72zM109.54 165.25v-1.2l2.37-.79a.89.89 0 00.43-.26.83.83 0 00.16-.54v-17.41a.78.78 0 00-.16-.51.88.88 0 00-.43-.25l-2.37-.82v-1.17h9.15v1.17l-2.36.82a.94.94 0 00-.43.26.72.72 0 00-.17.5v9.06l8.7-9.78-1.45-.86v-1.17h7.14v1.17l-2.38.8a3.29 3.29 0 00-.64.3 3 3 0 00-.66.55L120.1 152l7.44 10.32a5.84 5.84 0 00.5.59 1.67 1.67 0 00.59.42l2.2.75v1.14h-7.74v-1.14l1.24-.74-6.46-9.12-2.14 1.28v6.93a.77.77 0 00.16.54.92.92 0 00.44.26l2.36.79v1.2zM147.27 165.25v-1.2l2.37-.79a.91.91 0 00.42-.26.78.78 0 00.17-.54v-17.41a.78.78 0 00-.16-.51.88.88 0 00-.43-.25l-2.37-.82v-1.17h8.9a12.78 12.78 0 014.13.64 6.35 6.35 0 012.94 2 5.49 5.49 0 011.1 3.58 8 8 0 01-1 4 6.63 6.63 0 01-2.64 2.61 7.91 7.91 0 01-3.85.91 5.6 5.6 0 01-1.84-.37 7.43 7.43 0 01-1.74-.84v-1.19a6.54 6.54 0 001.43.24c.61.06 1.19.08 1.72.08a4.37 4.37 0 002.33-.54 3.76 3.76 0 001.32-1.34 4.89 4.89 0 00.59-1.57 6.35 6.35 0 00-.3-3.73 3.87 3.87 0 00-1.61-1.87 6.34 6.34 0 00-3.28-.71h-2v18.24a.73.73 0 00.18.54 1 1 0 00.42.26l2.51.79v1.2zM169.79 165.25v-1.2l2.37-.79a.89.89 0 00.43-.26.77.77 0 00.16-.54v-17.41a.73.73 0 00-.17-.51.89.89 0 00-.42-.25l-2.37-.82v-1.17h17.14v5.7h-1.82l-.6-3.15a.77.77 0 00-.23-.44.59.59 0 00-.43-.16H176v8.08h4.73a.65.65 0 00.45-.13.79.79 0 00.21-.44l.55-2.53h1.48v8.18h-1.48l-.55-2.52a.86.86 0 00-.21-.45.61.61 0 00-.45-.15H176v9h9.07a.59.59 0 00.41-.16.69.69 0 00.22-.44l.62-3.52h1.8v6.08zM194 165.25v-1.2l2.37-.79a.93.93 0 00.41-.26.73.73 0 00.17-.54v-17.41a.69.69 0 00-.17-.51.91.91 0 00-.41-.25l-2.37-.82v-1.17h10.1a13.78 13.78 0 012.82.32 12 12 0 013 1.09 9.38 9.38 0 012.65 2.1 9.87 9.87 0 011.91 3.31 13.92 13.92 0 01.72 4.75 12.35 12.35 0 01-1.51 6.44 9.32 9.32 0 01-4 3.73 12.87 12.87 0 01-5.6 1.21zm6.19-21v19.11h3.92q3.87 0 5.67-2.36a10.66 10.66 0 001.8-6.62 12.91 12.91 0 00-1-5.4 8.11 8.11 0 00-2.93-3.5 8 8 0 00-4.45-1.23zM231.39 165.77a10.82 10.82 0 01-5.8-1.47 9.35 9.35 0 01-3.62-4.17 15.24 15.24 0 01-1.24-6.39 14.31 14.31 0 011.28-6.18 10.05 10.05 0 013.67-4.24 10.37 10.37 0 015.74-1.55 10.53 10.53 0 016 1.58 9.54 9.54 0 013.51 4.28 15.59 15.59 0 011.14 6.11 16.06 16.06 0 01-.61 4.43 12 12 0 01-1.9 3.87 9.33 9.33 0 01-3.31 2.73 10.8 10.8 0 01-4.86 1zm.27-1.88a5.9 5.9 0 003.79-1.22 7.3 7.3 0 002.29-3.38 15.32 15.32 0 00.76-5 17.6 17.6 0 00-.81-5.65 7.7 7.7 0 00-2.45-3.68 6.44 6.44 0 00-4.15-1.3 5.72 5.72 0 00-3.9 1.3 7.49 7.49 0 00-2.2 3.45 15.29 15.29 0 00-.7 4.76 17.94 17.94 0 00.79 5.62 7.87 7.87 0 002.43 3.75 6.33 6.33 0 004.15 1.35zM247.73 165.25v-1.2l2.37-.9a1.09 1.09 0 00.43-.27.73.73 0 00.16-.51v-17.3a.73.73 0 00-.17-.51 1 1 0 00-.42-.26l-2.46-.83v-1.17H254l10.68 15.83 1.19 2.06h.24v-15.06a.59.59 0 00-.18-.48 1.31 1.31 0 00-.43-.25l-2.34-.93v-1.17h8v1.17l-2.36.93a1.26 1.26 0 00-.4.25.6.6 0 00-.2.48v16.56l-.46 3.72h-1.83l-11.63-17.16-1.28-2.09h-.25v16.21a.65.65 0 00.19.52 1 1 0 00.4.26l2.32.9v1.2zM292.28 162.78v-5.53a.74.74 0 00-.16-.52.9.9 0 00-.4-.24l-3.05-.81v-1.17H298v1.17l-1.95.81a1.56 1.56 0 00-.4.25.66.66 0 00-.19.51V162.44c0 .71 0 1.27.07 1.69a30.46 30.46 0 01-3.93 1.14 20.44 20.44 0 01-4.54.5 10.57 10.57 0 01-5.32-1.37 10.13 10.13 0 01-3.87-4 13.57 13.57 0 01-1.45-6.52 13.35 13.35 0 011.44-6.38 10.36 10.36 0 013.91-4.17 10.78 10.78 0 015.63-1.48 26.17 26.17 0 012.73.13c.86.09 1.71.23 2.57.4s1.73.39 2.64.65v5.86h-1.81l-.57-3.32a.59.59 0 00-.27-.4 2.16 2.16 0 00-.43-.25 12 12 0 00-2.44-.82 12.34 12.34 0 00-2.7-.3 6.45 6.45 0 00-6.24 4.14 13.34 13.34 0 00-.9 5.27 15.45 15.45 0 00.92 5.53 8.47 8.47 0 002.68 3.76 6.72 6.72 0 004.25 1.36 8.77 8.77 0 001.91-.19 10.19 10.19 0 001.53-.44c.46-.23.79-.34 1.01-.45z"/></svg>