<svg width="288" height="288" version="1.1" xmlns="http://www.w3.org/2000/svg"><path fill="rgb(0,0,0)" stroke="rgb(0,0,0)" stroke-width="1" opacity="0" d="M 0 0 L 288 0 L 288 226.5 L 285.5 225 L 284 224.5 L 284 75.5 Q 282.6 67.4 276.5 64 L 272.5 62 L 236 62 L 236 27.5 Q 234.6 19.4 228.5 16 L 224.5 14 L 63.5 14 L 54 21.5 L 52 27.5 L 52 62 L 15.5 62 L 6 69.5 L 4 75.5 L 4 225 L 0.5 227 L 0 0 Z "></path><path fill="rgb(0,0,0)" stroke="rgb(0,0,0)" stroke-width="1" opacity="0" d="M 67.5 24 L 220.5 24 L 225 27.5 L 225 164.5 L 222.5 167 L 220.5 168 L 67.5 168 L 63 164.5 L 63 27.5 L 65.5 25 L 67.5 24 Z M 107 32 L 98 35 L 95 39 L 95 42 L 113 60 L 112 65 L 110 66 L 107 66 L 89 48 L 84 49 L 79 59 L 79 73 Q 81 82 86 88 L 99 97 L 111 100 L 118 100 L 121 103 L 113 111 L 107 111 L 101 117 L 86 139 L 86 143 L 103 159 L 107 159 L 131 142 Q 135 139 134 132 L 143 123 L 174 154 L 183 157 L 191 156 L 195 154 Q 202 149 204 139 Q 204 127 198 123 L 174 99 L 207 66 L 210 58 Q 211 48 207 44 Q 203 37 195 35 Q 185 34 181 37 L 148 69 L 145 54 L 139 44 Q 133 36 124 33 Q 117 31 107 32 Z "></path><path fill="rgb(0,0,0)" stroke="rgb(0,0,0)" stroke-width="1" opacity="0" d="M 111.5 42 L 120.5 43 L 132 51.5 L 136 59.5 L 137 72.5 L 139 77.5 Q 136.2 79.2 137 84.5 L 138 85.5 L 129.5 94 L 117.5 89 Q 109.3 90.3 104.5 88 Q 97 85 93 78.5 Q 88.8 73.2 89 63.5 L 103.5 77 L 106.5 78 L 116.5 75 L 121 71.5 L 125 57.5 L 111.5 42 Z "></path><path fill="rgb(0,0,0)" stroke="rgb(0,0,0)" stroke-width="1" opacity="0" d="M 188.5 46 Q 195.8 46.3 198 51.5 L 199 55.5 L 197 60.5 L 162.5 95 L 150 81.5 L 182.5 49 L 188.5 46 Z "></path><path fill="rgb(0,0,0)" stroke="rgb(0,0,0)" stroke-width="1" opacity="0" d="M 19.5 72 L 52 72 L 52 86 L 26.5 86 L 24 88.5 L 24 224.5 L 23.5 225 L 15 225 L 15 75.5 L 17.5 73 L 19.5 72 Z "></path><path fill="rgb(0,0,0)" stroke="rgb(0,0,0)" stroke-width="1" opacity="0" d="M 236 72 L 268.5 72 L 273 75.5 L 273 224.5 L 272.5 225 L 264 225 L 264 88.5 L 261.5 86 L 236 86 L 236 72 Z "></path><path fill="rgb(0,0,0)" stroke="rgb(0,0,0)" stroke-width="1" opacity="0" d="M 145.5 94 L 152 99.5 L 124 126.5 L 123 133.5 L 119.5 137 L 105.5 147 L 98 139.5 L 100 137.5 L 110 122 Q 116.3 123 119.5 120 L 145.5 94 Z "></path><path fill="rgb(0,0,0)" stroke="rgb(0,0,0)" stroke-width="1" opacity="0" d="M 34 96 L 51.5 96 L 52 96.5 L 52 164.5 Q 53.4 172.6 59.5 176 L 63.5 178 L 224.5 178 L 234 170.5 L 236 164.5 L 236 96 L 253.5 96 L 254 96.5 L 254 225 L 34 225 L 34 96 Z "></path><path fill="rgb(0,0,0)" stroke="rgb(0,0,0)" stroke-width="1" opacity="0" d="M 166.5 106 L 191 130.5 Q 194.2 132.8 193 139.5 L 188.5 145 L 181.5 146 L 150 115.5 L 159.5 107 L 164.5 108 L 166.5 106 Z "></path><path fill="rgb(0,0,0)" stroke="rgb(0,0,0)" stroke-width="1" opacity="0" d="M 10 236 L 104.5 236 L 105 236.5 L 105 250.5 L 107.5 254 L 109.5 255 L 178.5 255 L 182 252.5 L 183 250.5 L 183 236 L 277.5 236 L 278 236.5 L 278 260.5 L 273.5 264 L 14.5 264 L 10 260.5 L 10 236 Z "></path><path fill="rgb(0,0,0)" stroke="rgb(0,0,0)" stroke-width="1" opacity="0" d="M 116 236 L 171.5 236 L 172 236.5 L 172 244 L 116.5 244 L 116 243.5 L 116 236 Z "></path><path fill="rgb(0,0,0)" stroke="rgb(0,0,0)" stroke-width="1" opacity="0" d="M 0.5 265 L 6.5 272 L 11.5 274 L 276.5 274 Q 283.7 272.2 287 266.5 L 287.5 265 L 288 288 L 0.5 288 L 0 287.5 L 0.5 265 Z "></path><path fill="rgb(255,255,255)" stroke="rgb(255,255,255)" stroke-width="1" opacity="0.9137254901960784" d="M 63.5 14 L 224.5 14 L 234 21.5 L 236 27.5 L 236 62 L 272.5 62 L 282 69.5 L 284 75.5 L 284 225 L 288 227.5 L 288 264.5 L 281.5 272 L 276.5 274 L 11.5 274 Q 4.3 272.2 1 266.5 L 0 264.5 L 0 227.5 L 4 225 L 4 75.5 Q 5.4 67.4 11.5 64 L 15.5 62 L 52 62 L 52 27.5 Q 53.4 19.4 59.5 16 L 63.5 14 Z M 68 24 L 66 25 L 63 28 L 63 165 L 68 168 L 221 168 L 223 167 L 225 165 L 225 28 L 221 24 L 68 24 Z M 20 72 L 18 73 L 15 76 L 15 225 L 24 225 L 24 225 L 24 89 L 27 86 L 52 86 L 52 72 L 20 72 Z M 236 72 L 236 86 L 262 86 L 264 89 L 264 225 L 273 225 L 273 225 L 273 76 L 269 72 L 236 72 Z M 34 96 L 34 225 L 254 225 L 254 97 L 254 96 L 236 96 L 236 165 L 234 171 L 225 178 L 64 178 L 60 176 Q 53 173 52 165 L 52 97 L 52 96 L 34 96 Z M 10 236 L 10 261 L 15 264 L 274 264 L 278 261 L 278 237 L 278 236 L 183 236 L 183 251 L 182 253 L 179 255 L 110 255 L 108 254 L 105 251 L 105 237 L 105 236 L 10 236 Z M 116 236 L 116 244 L 117 244 L 172 244 L 172 237 L 172 236 L 116 236 Z "></path><path fill="rgb(255,255,255)" stroke="rgb(255,255,255)" stroke-width="1" opacity="0.9137254901960784" d="M 106.5 32 Q 116.8 30.7 123.5 33 Q 133.2 36.3 139 43.5 L 145 53.5 L 147.5 69 L 180.5 37 Q 185.2 33.7 194.5 35 Q 202.8 37.1 207 43.5 Q 211 47.9 210 57.5 L 207 65.5 L 174 98.5 L 198 122.5 Q 204 127.5 204 138.5 Q 202.4 149.4 194.5 154 L 190.5 156 L 182.5 157 L 173.5 154 L 142.5 123 L 134 131.5 Q 135 139.5 130.5 142 L 106.5 159 L 102.5 159 L 86 142.5 L 86 138.5 L 101 116.5 L 106.5 111 L 112.5 111 L 121 102.5 L 117.5 100 L 110.5 100 L 98.5 97 L 86 87.5 Q 80.9 81.7 79 72.5 L 79 58.5 L 83.5 49 L 88.5 48 L 106.5 66 L 109.5 66 L 112 65 L 113 59.5 L 95 41.5 L 95 38.5 L 97.5 35 L 106.5 32 Z M 112 42 L 125 58 L 121 72 L 117 75 L 107 78 L 104 77 L 89 64 Q 89 73 93 79 Q 97 85 105 88 Q 109 90 118 89 L 130 94 L 138 86 L 137 85 Q 136 79 139 78 L 137 73 L 136 60 L 132 52 L 121 43 L 112 42 Z M 189 46 L 183 49 L 150 82 L 163 95 L 197 61 L 199 56 L 198 52 Q 196 46 189 46 Z M 146 94 L 120 120 Q 116 123 110 122 L 100 138 L 98 140 L 106 147 L 120 137 L 123 134 L 124 127 L 152 100 L 146 94 Z M 167 106 L 165 108 L 160 107 L 150 116 L 182 146 L 189 145 L 193 140 Q 194 133 191 131 L 167 106 Z "></path></svg>