<svg data-name="Layer 1" xmlns="http://www.w3.org/2000/svg" viewBox="0 0 480 432"><path d="M472 352V104a24.07 24.07 0 00-24-24h-56V24a24.07 24.07 0 00-24-24H112a24.07 24.07 0 00-24 24v56H32a24.07 24.07 0 00-24 24v248a8 8 0 00-8 8v48a24.07 24.07 0 0024 24h432a24.07 24.07 0 0024-24v-48a8 8 0 00-8-8zM392 96h56a8 8 0 018 8v248h-16V128a8 8 0 00-8-8h-40zM104 24a8 8 0 018-8h256a8 8 0 018 8v224a8 8 0 01-8 8H112a8 8 0 01-8-8zm8 248h256a24.07 24.07 0 0024-24V136h32v216H56V136h32v112a24.07 24.07 0 0024 24zm176 96v16h-96v-16zM24 104a8 8 0 018-8h56v24H48a8 8 0 00-8 8v224H24zm440 304a8 8 0 01-8 8H24a8 8 0 01-8-8v-40h160v24a8 8 0 008 8h112a8 8 0 008-8v-24h160z"/><path d="M187.9 141.4a25.16 25.16 0 0115.6 5.1l-15.4 15.4h-8a7.75 7.75 0 00-6.5 3.4l-28.3 39.6a8 8 0 00.8 10.3l22.6 22.6a8 8 0 0010.3.9l39.6-28.3a8 8 0 003.4-6.5v-8l15.6-15.6 46.6 46.7a32 32 0 0054.7-22.6 32.59 32.59 0 00-9.4-22.8l-41-41 49.9-49.9a32 32 0 10-44.4-46l-.8.8-48 48a22.8 22.8 0 01-1.2-7.3 54.93 54.93 0 00-16.4-40.3 56.26 56.26 0 00-63.8-10.8 8 8 0 00-3.8 10.7 6.91 6.91 0 001.6 2.2l28.5 28.4-2.9 8.5-8.5 2.8-28.5-28.5a7.83 7.83 0 00-7-2.2 7.92 7.92 0 00-5.9 4.4 55.77 55.77 0 0050.6 80zm20.5 45.5a7.93 7.93 0 00-2.3 5.7v7.2l-30.7 22-13-13 22-30.7h7.2a8.1 8.1 0 005.7-2.3l45.3-45.3 11.3 11.3zm109.9 6a16.06 16.06 0 010 22.6 16.46 16.46 0 01-22.7.1L249 169l16-16a8 8 0 0011.3 0l1-1zM304.6 56.8a16.44 16.44 0 0122.6 0 16.06 16.06 0 010 22.6L270.6 136 248 113.4zm-156 23l22.6 22.6a8 8 0 008.2 1.9l17-5.7a8 8 0 005-5l5.7-17a8 8 0 00-1.9-8.2l-22.6-22.6a39.82 39.82 0 0145.6 40 39.44 39.44 0 005 19.6l-2.1 2.1a8 8 0 000 11.3L214.9 135a40.66 40.66 0 00-26.6-9.8 39.38 39.38 0 01-32.6-16.5 38.93 38.93 0 01-7.1-28.9z"/></svg>