<?xml version="1.0" encoding="utf-8"?>
<!-- Created by UniConvertor 2.0rc5 (https://sk1project.net/) -->
<svg xmlns="http://www.w3.org/2000/svg" height="512.0px" width="512.0px" version="1.1" xmlns:xlink="http://www.w3.org/1999/xlink" id="d9f3dc70-da2b-11ec-beee-0242c0a89003">

<g>
	<g>
		<path style="fill:#f2f2f2;" d="M 512.0,256.0 C 512.0,397.385 397.385,512.0 256.0,512.0 125.555,512.0 17.899,414.438 2.027,288.298 0.69,277.723 0.0,266.94 0.0,256.0 0.0,235.959 2.299,216.451 6.656,197.736 33.029,84.428 134.656,0.0 256.0,0.0 377.041,0.0 478.469,84.01 505.135,196.901 508.635,211.665 510.84,226.921 511.645,242.542 511.885,247.003 512.0,251.486 512.0,256.0 Z" />
		<path style="fill:#3b8739;" d="M 243.195,276.559 L 243.195,210.0 185.553,176.721 127.912,210.0 127.912,276.559 185.553,309.838 243.195,276.559 Z" />
		<path style="fill:#333333;" d="M 470.204,266.459 L 507.768,288.151 470.204,309.843 412.567,276.563 412.567,210.003 470.204,176.723 505.135,196.9 C 508.635,211.664 510.84,226.92 511.645,242.541 L 490.287,254.871 490.287,231.685 470.204,220.097 450.121,231.685 450.121,254.871 470.204,266.459 Z" />
		<path style="fill:#66a060;" d="M 481.392,249.74 L 481.392,236.82 470.203,230.36 459.013,236.82 459.013,249.74 470.203,256.201 481.392,249.74 Z" />
		<path style="fill:#333333;" d="M 100.686,210.004 L 100.686,297.775 62.244,275.843 62.244,230.85 43.05,219.763 23.855,230.849 23.855,275.842 2.027,288.298 C 0.69,277.723 0.0,266.94 0.0,256.0 0.0,235.959 2.299,216.451 6.656,197.736 L 43.05,176.723 100.686,210.004 Z" />
		<path style="fill:#6da75d;" d="M 185.5485,176.7176 L 127.9102,209.9961 185.5507,309.8294 243.189,276.5509 185.5485,176.7176 Z" />
		<path style="fill:#55a344;" d="M 127.912,276.559 L 147.704,244.283 127.912,210.0 127.912,276.559 Z" />
		<path style="fill:#639d57;" d="M 223.979,243.277 L 243.195,210.0 185.553,176.721 223.979,243.277 Z" />
		<path style="fill:#333333;" d="M 346.551,99.579 L 346.551,187.883 327.231,176.723 269.584,210.003 269.584,276.563 327.231,309.843 384.868,276.563 384.868,120.09 346.551,99.579 Z M 346.446,254.37 L 327.23,265.467 308.014,254.37 308.014,232.187 327.23,221.09 346.446,232.187 346.446,254.37 Z" />
		<g>
			<path style="fill:#66a060;" d="M 282.149,358.717 C 282.149,358.717 281.017,348.988 270.61,348.988 260.202,348.988 253.076,350.345 253.076,356.115 253.076,361.885 273.326,361.885 281.019,364.147 288.712,366.409 295.499,372.292 292.105,382.7 288.711,393.108 278.303,394.239 262.239,394.239 246.175,394.239 242.554,380.889 242.554,375.686 L 251.604,375.686 C 251.604,375.686 250.472,383.831 261.106,385.188 271.74,386.545 281.908,387.309 283.279,379.08 285.089,368.219 248.888,373.65 245.72,363.016 243.044,354.031 244.588,342.201 262.689,340.39 280.79,338.579 290.745,346.571 290.745,358.491 L 282.149,358.717 Z" />
			<path style="fill:#66a060;" d="M 194.723,401.131 L 214.731,412.682 C 224.784,418.486 237.35,411.231 237.35,399.623 L 237.35,379.381 237.35,342.128 229.195,342.128 229.195,397.355 C 229.195,403.694 222.333,407.657 216.842,404.486 L 202.877,396.424 202.877,337.484 253.92,308.017 304.963,337.484 304.963,396.424 253.92,425.891 239.216,417.402 229.614,421.274 253.919,435.307 313.117,401.128 313.117,332.777 253.92,298.6 194.722,332.779 194.722,401.131 194.723,401.131 Z" />
		</g>
	</g>
</g>
</svg>