<svg data-name="Layer 1" xmlns="http://www.w3.org/2000/svg" viewBox="0 0 426.6 511.92"><path d="M418.8 43.12L269.5.42a10.52 10.52 0 00-7 .4l-256 106.7a10.56 10.56 0 00-6.5 9.8v277.3a10.69 10.69 0 0010.6 10.7A10.63 10.63 0 000 416a10.76 10.76 0 007.3 10.1l256 85.3a9.67 9.67 0 003.4.5 9.25 9.25 0 002.9-.4l149.3-42.7a10.59 10.59 0 007.7-10.2V53.32a10.68 10.68 0 00-7.8-10.2zM15.3 404.22l64-32a10.67 10.67 0 005.9-9.5v-226.4l192-48v357.9l-265-40.7a7.57 7.57 0 00-1.5-.1 12.06 12.06 0 004.6-1.2z" fill="#ff5722"/></svg>