<svg data-name="Layer 1" xmlns="http://www.w3.org/2000/svg" viewBox="0 0 512 512"><g data-name="Layer 2"><g data-name="3.Adobe Photoshop"><path d="M0 0h420.25A91.75 91.75 0 01512 91.75V512H91.75A91.75 91.75 0 010 420.25V0z" fill="#002732"/><path d="M420.25 23.27a68.57 68.57 0 0168.48 68.48v397h-397a68.57 68.57 0 01-68.48-68.48v-397zm0-23.27H0v420.25A91.75 91.75 0 0091.75 512H512V91.75A91.75 91.75 0 00420.25 0z" fill="#00d4ff"/><g fill="#00d4ff"><path d="M140.28 340.36V169.6a1.62 1.62 0 011.83-1.83q19.89-.53 50.53-.53 36.13 0 53 16.24a53.35 53.35 0 0116.88 40.05q0 29.57-21 44.11t-52.51 14.28h-15.48v58.18a1.87 1.87 0 01-1.6 2.1 2.09 2.09 0 01-.5 0h-29.09c-1.38 0-2.06-.65-2.06-1.84zm33.25-148v64.41a163.83 163.83 0 0017 .52q17.44 0 28.42-7.74t10.85-25.25q0-15.45-9.54-23.83T192.64 192h-15.8zM361.77 244.74a57 57 0 00-30.63-9.1 21.75 21.75 0 00-13.5 3.4 10.07 10.07 0 00-4.3 8.12 11.19 11.19 0 003.75 8.2 53.58 53.58 0 0015.45 8.23Q354.28 272 363 281.28a33.44 33.44 0 018.72 23.94 34.91 34.91 0 01-13.5 28.69q-13.49 10.84-36.5 10.85t-37.82-8.38a2.41 2.41 0 01-1.57-2.62v-24.35A1.5 1.5 0 01283 308a.9.9 0 011.19 0 60.17 60.17 0 0036.39 12.56 24.89 24.89 0 0014-3.26 9.9 9.9 0 004.86-8.52 12.39 12.39 0 00-3.92-9.28 49.47 49.47 0 00-15.45-8.26q-21-8.12-29.09-17.46a34.07 34.07 0 01-8.24-23.44A35.06 35.06 0 01295 223.1q12.27-10.74 35-10.74 21.21 0 32.73 5.82c.87.53 1.31 1.66 1.31 3.41v21.73c.09 1.99-.69 2.47-2.27 1.42z"/></g></g></g></svg>