<svg data-name="Layer 1" xmlns="http://www.w3.org/2000/svg" viewBox="0 0 512 512"><g data-name="Layer 2"><g data-name="4.Adobe Premiere"><path d="M0 0h420.25A91.75 91.75 0 01512 91.75V512H91.75A91.75 91.75 0 010 420.25V0z" fill="#2d1e33"/><path d="M420.25 23.27a68.57 68.57 0 0168.48 68.48v397h-397a68.57 68.57 0 01-68.48-68.48v-397zm0-23.27H0v420.25A91.75 91.75 0 0091.75 512H512V91.75A91.75 91.75 0 00420.25 0z" fill="#d555ff"/><g fill="#d555ff"><path d="M144.35 341.61v-170.7a1.6 1.6 0 011.33-1.83 1.4 1.4 0 01.5 0q19.86-.53 50.53-.53 36.14 0 53 16.24a53.4 53.4 0 0116.9 40.05q0 29.6-21 44T193 283.37h-15.55v58.19a1.83 1.83 0 01-1.53 2.09 1.88 1.88 0 01-.53 0H146.3c-1.28-.2-2-.81-2-2zm33.1-147.92v64.4a161.68 161.68 0 0017.05.53q17.46 0 28.39-7.71t10.88-25.28q0-15.45-9.57-23.83t-27.6-8.37c-2.91 0-5.82 0-8.73.14s-5.24 0-7.07 0zM292.25 215.94h25.92a2.92 2.92 0 012.91 2.36 68.21 68.21 0 012.92 15.45 49.94 49.94 0 0141.89-20.16 1.62 1.62 0 011.83 1.83v27a1.86 1.86 0 01-1.6 2.09 2.09 2.09 0 01-.5 0q-23.82-1.57-37.81 12.57a8.46 8.46 0 00-2.36 6.28v78a1.87 1.87 0 01-1.6 2.1 2 2 0 01-.49 0h-28.8c-1.58 0-2.36-.7-2.36-2.1v-88.27q0-20.35-1.31-35.34c-.31-1.21.15-1.81 1.37-1.81z"/></g></g></g></svg>