<svg data-name="Layer 1" xmlns="http://www.w3.org/2000/svg" viewBox="0 0 512 512"><path d="M256 0c141.39 0 256 114.62 256 256S397.39 512 256 512 0 397.39 0 256 114.62 0 256 0z" fill="#c69" fill-rule="evenodd"/><path d="M416.58 109.57C405 64.1 329.6 49.16 258.25 74.51c-42.46 15.08-88.43 38.76-121.48 69.67-39.3 36.76-45.57 68.76-43 82.12 9.11 47.18 73.75 78 100.32 100.88v.14c-7.84 3.86-65.18 32.88-78.6 62.55-14.16 31.3 2.25 53.76 13.12 56.78 33.67 9.37 68.22-7.48 86.79-35.17 17.92-26.73 16.42-61.25 8.64-78.41 10.74-2.84 23.26-4.11 39.18-2.25 44.9 5.25 53.71 33.29 52 45S304.16 394 301 396s-4.11 2.62-3.85 4.07c.38 2.1 1.84 2 4.52 1.57 3.7-.62 23.59-9.55 24.44-31.21 1.08-27.5-25.28-58.26-71.94-57.46-19.22.33-31.31 2.16-40 5.41q-1-1.11-2-2.19c-28.85-30.78-82.18-52.56-79.92-93.94.82-15 6-54.65 102.48-102.7C313.71 80.17 377 91 387.88 115c15.61 34.3-33.8 98-115.83 107.23-31.26 3.51-47.71-8.61-51.81-13.12-4.31-4.75-5-5-6.56-4.07-2.62 1.45-1 5.64 0 8.14 2.45 6.38 12.5 17.68 29.64 23.3 15.07 5 51.77 7.67 96.15-9.5 49.7-19.22 88.51-72.7 77.11-117.41zm-211.46 231.7c3.73 13.78 3.32 26.63-.53 38.27a69.17 69.17 0 01-14.89 24.81c-14.87 16.22-35.65 22.36-44.56 17.19-9.63-5.58-4.81-28.46 12.44-46.69 18.55-19.61 45.24-32.22 45.24-32.22v-.08c.73-.41 1.51-.84 2.3-1.28z" fill="#fff"/></svg>