<svg id="Layer_1" data-name="Layer 1" xmlns="http://www.w3.org/2000/svg" viewBox="0 0 512 512"><path d="M50,0H462a50,50,0,0,1,50,50V462a50,50,0,0,1-50,50H50A50,50,0,0,1,0,462V50A50,50,0,0,1,50,0Z" style="fill:#3178c6"/><path d="M50,0H462a50,50,0,0,1,50,50V462a50,50,0,0,1-50,50H50A50,50,0,0,1,0,462V50A50,50,0,0,1,50,0Z" style="fill:#3178c6"/><path d="M316.94,407.42v50.07a106,106,0,0,0,28.87,9.38A190,190,0,0,0,381,470c21.22,0,44.45-3,62.6-14.78S470,424.08,470,403c0-15.63-4.85-30.68-15.81-42.08-16.43-17.09-39.51-24-60.25-34.18-10.39-5.09-24.73-13-24.73-26.36a16.92,16.92,0,0,1,2.66-9.31c7.13-11.11,23-13.37,35.06-13.37a102.31,102.31,0,0,1,40.93,8.76,75.45,75.45,0,0,1,12.28,6.88V246.6a122.48,122.48,0,0,0-25-6.49A203.22,203.22,0,0,0,404.11,238a144.65,144.65,0,0,0-33.8,3.83,86.26,86.26,0,0,0-28.1,12A59.83,59.83,0,0,0,323,274.53q-7,12.59-7,30.11,0,22.38,12.91,38.18t39.21,26.75c11.79,4.82,24.05,9.58,34.66,16.74,7.36,5,14,11.87,14,21.27,0,6.82-3.86,12.6-9.47,16.19-8.3,5.31-18.94,6.49-28.56,6.49a95,95,0,0,1-32.24-5.71,96,96,0,0,1-29.58-17.13ZM232.78,284.08H297V243H118v41.08h63.91V467h50.87Z" style="fill:#fff;fill-rule:evenodd"/></svg>