<svg data-name="Layer 1 copy 3" xmlns="http://www.w3.org/2000/svg" viewBox="0 0 313.29 335.21"><ellipse cx="156.85" cy="155.85" rx="146.6" ry="145.8" fill="#fff"/><path d="M47.71 241.82v-9.24l19-6.89a7.7 7.7 0 003.32-2 5.53 5.53 0 001.36-4V86.45a5.52 5.52 0 00-1.29-3.94 7.6 7.6 0 00-3.39-2l-19-6.28v-9h63.4l41.25 116.58 6.15 21.42h2l47.64-138h62.54v9L252 80.54a8.74 8.74 0 00-3.45 2 5.15 5.15 0 00-1.55 3.91v134a5.53 5.53 0 001.35 4.06 8.92 8.92 0 003.57 2.09l18.71 6v9.24h-72.85v-9.24l18.72-6a8 8 0 003.5-2 5.56 5.56 0 001.42-4.12V78.7h-2.34l-5.78 18.22-42 117.57-11.69 27.33h-12.55L95.72 97l-5.66-18.3h-2v141a5.28 5.28 0 001.36 4 9.62 9.62 0 003.32 2l18.59 6.89v9.24z"/><path fill="#fff" d="M13.45 138.05h287.34v32.5H13.45z"/><path d="M26 165.25v-1.2l2.37-.9a.91.91 0 00.42-.26.77.77 0 00.17-.52v-17.32a.78.78 0 00-.16-.51.88.88 0 00-.43-.25l-2.37-.82v-1.17h7.93l5.16 15.15.77 2.79h.24l6-17.94h7.82v1.17l-2.34.82a1.06 1.06 0 00-.43.26.68.68 0 00-.18.5v17.41a.75.75 0 00.16.53 1.13 1.13 0 00.45.27l2.34.79v1.2h-9.17v-1.2l2.34-.79a1 1 0 00.44-.26.78.78 0 00.17-.54v-18.41h-.29l-.72 2.36-5.25 15.28-1.44 3.56h-1.59L32 146.43l-.71-2.38H31v18.32a.74.74 0 00.17.52 1.11 1.11 0 00.42.26l2.32.9v1.2zM57.91 165.25v-1.2l1.57-.72a1.51 1.51 0 00.78-.88l6.27-16.68 1.82-3.77h1.74l7.77 20.54a2.32 2.32 0 00.3.52.93.93 0 00.44.36l1.63.68v1.2h-8.16v-1.2l2.59-.93-5.51-14.67-.6-2.16h-.27L62.2 163l2.62 1v1.2zm6.16-8.05l.75-2.23h7.1l.75 2.23zM84.26 165.25v-1.2l2.37-.79a.89.89 0 00.43-.26.77.77 0 00.16-.54v-17.41a.73.73 0 00-.17-.51.89.89 0 00-.42-.25l-2.37-.82v-1.17h9a13.77 13.77 0 014.12.51 6.41 6.41 0 012.47 1.36 4.57 4.57 0 011.2 1.88 6.67 6.67 0 01.33 2.06 6.16 6.16 0 01-.8 3.21 6.55 6.55 0 01-2 2.12 7.25 7.25 0 01-2.35 1.05l-2.5 1.06-3.54-.75.14-1.71a4.69 4.69 0 00.66.1c.35 0 .72.07 1.12.09h.93a5.37 5.37 0 002.74-.63 4.1 4.1 0 001.64-1.65 4.91 4.91 0 00.53-2.23 4.24 4.24 0 00-1.32-3.48 6 6 0 00-3.88-1.08h-2.3v18.24a.78.78 0 00.17.54.91.91 0 00.42.26l2.43.79v1.2zm21.48 0H102a4.9 4.9 0 01-1.54-.19 2 2 0 01-.86-.63c-.23-.3-.54-.71-.91-1.25l-5.52-7.92 3.12-1 5.81 8a3.73 3.73 0 00.54.62 1.85 1.85 0 00.72.46l2.37.72zM109.54 165.25v-1.2l2.37-.79a.82.82 0 00.42-.26.78.78 0 00.17-.54v-17.41a.73.73 0 00-.17-.51.8.8 0 00-.42-.25l-2.37-.82v-1.17h9.14v1.17l-2.35.82a.89.89 0 00-.43.26.72.72 0 00-.17.5v9.06l8.7-9.78-1.45-.86v-1.17h7.14v1.17l-2.38.8a3.29 3.29 0 00-.64.3 3 3 0 00-.66.55L120.1 152l7.44 10.32a5.84 5.84 0 00.5.59 1.58 1.58 0 00.59.42l2.2.75v1.14h-7.74v-1.14l1.24-.74-6.46-9.12-2.14 1.28v6.93a.77.77 0 00.16.54.88.88 0 00.44.26l2.35.79v1.2zM147.27 165.25v-1.2l2.37-.79a1 1 0 00.42-.26.78.78 0 00.17-.54v-17.41a.78.78 0 00-.16-.51.88.88 0 00-.43-.25l-2.37-.82v-1.17h8.9a12.68 12.68 0 014.12.64 6.33 6.33 0 013 2 5.49 5.49 0 011.1 3.58 8 8 0 01-1 4 6.63 6.63 0 01-2.64 2.61 7.91 7.91 0 01-3.85.91 5.6 5.6 0 01-1.84-.37 7.43 7.43 0 01-1.74-.84v-1.19a6.43 6.43 0 001.43.24c.61.06 1.19.08 1.72.08a4.37 4.37 0 002.33-.54 3.76 3.76 0 001.32-1.34 4.89 4.89 0 00.59-1.57 6.35 6.35 0 00-.3-3.73 3.87 3.87 0 00-1.61-1.87 6.34 6.34 0 00-3.28-.71h-2v18.24a.73.73 0 00.18.54 1 1 0 00.42.26l2.51.79v1.2zM169.79 165.25v-1.2l2.37-.79a.89.89 0 00.43-.26.83.83 0 00.16-.54v-17.41a.73.73 0 00-.17-.51.89.89 0 00-.42-.25l-2.37-.82v-1.17h17.14v5.7h-1.82l-.6-3.15a.77.77 0 00-.23-.44.59.59 0 00-.43-.16H176v8.08h4.73a.65.65 0 00.45-.13.79.79 0 00.21-.44l.55-2.53h1.48v8.18h-1.48l-.55-2.52a.86.86 0 00-.21-.45.61.61 0 00-.45-.15H176v9h9.07a.59.59 0 00.41-.16.74.74 0 00.22-.44l.61-3.52h1.81v6.08zM194 165.25v-1.2l2.37-.79a.93.93 0 00.41-.26.73.73 0 00.17-.54v-17.41a.69.69 0 00-.17-.51.91.91 0 00-.41-.25l-2.37-.82v-1.17h10.1a13.78 13.78 0 012.82.32 11.79 11.79 0 013 1.09 9.42 9.42 0 012.66 2.1 10 10 0 011.91 3.31 13.94 13.94 0 01.71 4.75 12.45 12.45 0 01-1.5 6.44 9.32 9.32 0 01-4 3.73 12.92 12.92 0 01-5.61 1.21zm6.19-21v19.11h3.92q3.87 0 5.67-2.36a10.66 10.66 0 001.8-6.62 12.91 12.91 0 00-1-5.4 8.11 8.11 0 00-2.93-3.5 8 8 0 00-4.45-1.23zM231.38 165.77a10.8 10.8 0 01-5.79-1.47 9.35 9.35 0 01-3.62-4.17 15.08 15.08 0 01-1.24-6.39 14.31 14.31 0 011.28-6.18 10 10 0 013.67-4.24 10.36 10.36 0 015.73-1.55 10.55 10.55 0 016 1.58 9.54 9.54 0 013.51 4.28 15.59 15.59 0 011.14 6.11 16.06 16.06 0 01-.61 4.43 11.87 11.87 0 01-1.91 3.87 9.21 9.21 0 01-3.3 2.73 10.82 10.82 0 01-4.86 1zm.28-1.88a5.9 5.9 0 003.79-1.22 7.28 7.28 0 002.28-3.38 15 15 0 00.77-5 17.6 17.6 0 00-.81-5.65 7.7 7.7 0 00-2.45-3.68 6.45 6.45 0 00-4.15-1.3 5.72 5.72 0 00-3.9 1.3 7.41 7.41 0 00-2.2 3.45 15.29 15.29 0 00-.7 4.76 17.94 17.94 0 00.79 5.62 7.87 7.87 0 002.43 3.75 6.33 6.33 0 004.15 1.35zM247.73 165.25v-1.2l2.37-.9a1.09 1.09 0 00.43-.27.78.78 0 00.16-.51v-17.3a.73.73 0 00-.17-.51 1 1 0 00-.42-.26l-2.46-.83v-1.17H254l10.68 15.83 1.19 2.06h.24v-15.06a.59.59 0 00-.18-.48 1.31 1.31 0 00-.43-.25l-2.34-.93v-1.17h8v1.17l-2.36.93a1.26 1.26 0 00-.4.25.6.6 0 00-.2.48v16.56l-.46 3.72h-1.83l-11.63-17.16-1.28-2.09h-.25v16.21a.65.65 0 00.19.52 1 1 0 00.4.26l2.32.9v1.2zM292.28 162.78v-5.53a.74.74 0 00-.16-.52.93.93 0 00-.41-.24l-3-.81v-1.17H298v1.17l-2 .81a1.7 1.7 0 00-.39.25.63.63 0 00-.19.51V162.44c0 .71 0 1.27.07 1.69a30.46 30.46 0 01-3.93 1.14 20.44 20.44 0 01-4.54.5 10.57 10.57 0 01-5.32-1.37 10 10 0 01-3.87-4 15.16 15.16 0 010-12.9 10.39 10.39 0 013.92-4.17 10.78 10.78 0 015.63-1.48 26.31 26.31 0 012.73.13c.86.09 1.71.23 2.56.4s1.74.39 2.65.65v5.86h-1.81l-.57-3.32a.59.59 0 00-.27-.4 2.16 2.16 0 00-.43-.25 12.26 12.26 0 00-2.44-.82 12.41 12.41 0 00-2.7-.3 6.45 6.45 0 00-6.24 4.14 13.34 13.34 0 00-.9 5.27 15.45 15.45 0 00.92 5.53 8.47 8.47 0 002.68 3.76 6.72 6.72 0 004.25 1.36 8.83 8.83 0 001.91-.19 10.93 10.93 0 001.53-.44c.48-.23.81-.34 1.03-.45z"/></svg>