<?xml version="1.0" encoding="utf-8"?>
<!-- Generator: Adobe Illustrator 26.1.0, SVG Export Plug-In . SVG Version: 6.00 Build 0)  -->
<svg version="1.1" id="Layer_1" xmlns="http://www.w3.org/2000/svg" xmlns:xlink="http://www.w3.org/1999/xlink" x="0px" y="0px"
	 viewBox="0 0 512 512" style="enable-background:new 0 0 512 512;" xml:space="preserve">
<style type="text/css">
	.st0{fill:#1E2E64;stroke:#1E2E64;}
	.st1{opacity:0.9961;fill:#0585BD;stroke:#0585BD;enable-background:new    ;}
	.st2{fill:#0485BD;stroke:#0485BD;}
	.st3{fill-opacity:0;}
	.st4{opacity:0.9922;fill:#2DD5FE;stroke:#2DD5FE;enable-background:new    ;}
	.st5{opacity:0.9922;fill:#FFFFFF;stroke:#2DD5FE;enable-background:new    ;}
</style>
<path class="st0" d="M285.5,107l0.5,297.5l-1.5-0.5l-11-1l-23-5l-17-2l-40-8h-5l-35-7l-11-1l-6-2l-34-5l-1.5-1.5v-231l1.5-0.5l46-9
	l51-8l6-2l74-12L285.5,107z M141,214l24,83l1,1h13l1-1l14-58l13,58l2,1h13l27-81v-3h-18l-14,56l-14-53v-3h-18l-14,57l-13-55v-2H141z
	"/>
<path class="st0" d="M295,140h117v232H295.5l-0.5-0.5V346h100.5l0.5-0.5V323H295.5l-0.5-0.5V307h100.5l0.5-0.5V284H295.5l-0.5-0.5
	V268h100.5l0.5-0.5V244H295.5l-0.5-0.5V228h100.5l0.5-0.5V205H295.5l-0.5-0.5V189h100.5l0.5-0.5V166H295.5l-0.5-0.5V140z"/>
<path class="st1" d="M277.5,108l2.5,0.5l-2.5,0.5V108z"/>
<path class="st1" d="M271.5,109l2.5,0.5l-2.5,0.5V109z"/>
<path class="st1" d="M265.5,110l2.5,0.5l-2.5,0.5V110z"/>
<path class="st1" d="M260.5,111l2.5,0.5l-2.5,0.5V111z"/>
<path class="st1" d="M254.5,112l2.5,0.5l-2.5,0.5V112z"/>
<path class="st1" d="M248.5,113l2.5,0.5l-2.5,0.5V113z"/>
<path class="st1" d="M237.5,115l2.5,0.5l-2.5,0.5V115z"/>
<path class="st1" d="M231.5,116l2.5,0.5l-2.5,0.5V116z"/>
<path class="st1" d="M225.5,117l2.5,0.5l-2.5,0.5V117z"/>
<path class="st1" d="M220.5,118l2.5,0.5l-2.5,0.5V118z"/>
<path class="st1" d="M214.5,119l2.5,0.5l-2.5,0.5V119z"/>
<path class="st1" d="M208.5,120l2.5,0.5l-2.5,0.5V120z"/>
<path class="st1" d="M197.5,122l2.5,0.5l-2.5,0.5V122z"/>
<path class="st1" d="M191.5,123l2.5,0.5l-2.5,0.5V123z"/>
<path class="st1" d="M185.5,124l2.5,0.5l-2.5,0.5V124z"/>
<path class="st1" d="M180.5,125l2.5,0.5l-2.5,0.5V125z"/>
<path class="st1" d="M174.5,126l2.5,0.5l-2.5,0.5V126z"/>
<path class="st1" d="M168.5,127l2.5,0.5l-2.5,0.5V127z"/>
<path class="st1" d="M163.5,128l2.5,0.5l-2.5,0.5V128z"/>
<path class="st1" d="M157.5,129l2.5,0.5l-2.5,0.5V129z"/>
<path class="st1" d="M151.5,130l2.5,0.5l-2.5,0.5V130z"/>
<path class="st1" d="M145.5,131l2.5,0.5l-2.5,0.5V131z"/>
<path class="st1" d="M140.5,132l2.5,0.5l-2.5,0.5V132z"/>
<path class="st1" d="M134.5,133l2.5,0.5l-2.5,0.5V133z"/>
<path class="st1" d="M128.5,134l2.5,0.5l-2.5,0.5V134z"/>
<path class="st1" d="M123.5,135l2.5,0.5l-2.5,0.5V135z"/>
<path class="st1" d="M117.5,136l2.5,0.5l-2.5,0.5V136z"/>
<path class="st1" d="M111.5,137l2.5,0.5l-2.5,0.5V137z"/>
<path class="st1" d="M106.5,138l2.5,0.5l-2.5,0.5V138z"/>
<path class="st1" d="M100,139l3,0.5l-2,0.5v231.5l1,1l-2,0.5V139z"/>
<path class="st1" d="M295.5,139l116.5,0.5L295.5,140V139z"/>
<path class="st1" d="M295.5,166h100l0.5,0.5v22h-1v-21l-0.5-0.5h-99V166z"/>
<path class="st1" d="M295.5,205h100l0.5,0.5v22h-1v-21l-0.5-0.5h-99V205z"/>
<path class="st1" d="M185,214l18,0.5l-16.5,0.5l-1,1L185,214z"/>
<path class="st1" d="M511.5,239l0.5,13.5h-1L511.5,239z"/>
<path class="st1" d="M295.5,244h100l0.5,0.5V268l-101-0.5l100-0.5v-21.5l-0.5-0.5h-99V244z"/>
<path class="st1" d="M511.5,260l0.5,18.5l-1.5,8.5l-0.5-7.5l1-1L511.5,260z"/>
<path class="st1" d="M395.5,284l0.5,23l-101-0.5l100-0.5L395.5,284z"/>
<path class="st1" d="M509.5,288l0.5,6.5l-1.5,5.5l-0.5-4.5L509.5,288z"/>
<path class="st1" d="M507.5,301l0.5,4.5l-2.5,9.5l-0.5-3.5L507.5,301z"/>
<path class="st1" d="M504.5,316l0.5,3.5c-11.8,43.5-31.3,79.4-58.5,107.5l5.5-6.5C476.3,392.4,493.8,357.6,504.5,316z"/>
<path class="st1" d="M395.5,323l0.5,23l-101-0.5l100-0.5L395.5,323z"/>
<path class="st1" d="M295.5,372l116.5,0.5L295.5,373V372z"/>
<path class="st1" d="M105.5,373l2.5,0.5l-2.5,0.5V373z"/>
<path class="st1" d="M111.5,374l2.5,0.5l-2.5,0.5V374z"/>
<path class="st1" d="M122.5,376l2.5,0.5l-2.5,0.5V376z"/>
<path class="st1" d="M128.5,377l2.5,0.5l-2.5,0.5V377z"/>
<path class="st1" d="M134.5,378l2.5,0.5l-2.5,0.5V378z"/>
<path class="st1" d="M145.5,380l2.5,0.5l-2.5,0.5V380z"/>
<path class="st1" d="M151.5,381l2.5,0.5l-2.5,0.5V381z"/>
<path class="st1" d="M162.5,383l2.5,0.5l-2.5,0.5V383z"/>
<path class="st1" d="M168.5,384l2.5,0.5l-2.5,0.5V384z"/>
<path class="st1" d="M179.5,386l2.5,0.5l-2.5,0.5V386z"/>
<path class="st1" d="M185.5,387l2.5,0.5l-2.5,0.5V387z"/>
<path class="st1" d="M191.5,388l2.5,0.5l-2.5,0.5V388z"/>
<path class="st1" d="M202.5,390l2.5,0.5l-2.5,0.5V390z"/>
<path class="st1" d="M208.5,391l2.5,0.5l-2.5,0.5V391z"/>
<path class="st1" d="M219.5,393l2.5,0.5l-2.5,0.5V393z"/>
<path class="st1" d="M225.5,394l2.5,0.5l-2.5,0.5V394z"/>
<path class="st1" d="M236.5,396l2.5,0.5l-2.5,0.5V396z"/>
<path class="st1" d="M242.5,397l2.5,0.5l-2.5,0.5V397z"/>
<path class="st1" d="M248.5,398l2.5,0.5l-2.5,0.5V398z"/>
<path class="st1" d="M253.5,399l2.5,0.5l-2.5,0.5V399z"/>
<path class="st1" d="M259.5,400l2.5,0.5l-2.5,0.5V400z"/>
<path class="st1" d="M265.5,401l2.5,0.5l-2.5,0.5V401z"/>
<path class="st1" d="M276.5,403l2.5,0.5l-2.5,0.5V403z"/>
<path class="st1" d="M282.5,404l2.5,0.5l-2.5,0.5V404z"/>
<path class="st1" d="M445.5,428l-18,19c-16.6,15.4-35.6,28.4-57,39l-28,12l-26,7v-1l17-4l22-8l33-17C410,461.8,429,446.1,445.5,428z
	"/>
<path class="st1" d="M311.5,505l3.5,0.5l-13.5,2.5v-1L311.5,505z"/>
<path class="st1" d="M295.5,508l4.5,0.5l-11.5,1.5v-1C292.2,510,294.5,509.7,295.5,508z"/>
<path class="st1" d="M279.5,510l7.5,0.5l-8.5,1.5h-18v-1h18L279.5,510z"/>
<path class="st1" d="M239.5,511l13.5,0.5l-13.5,0.5V511z"/>
<path class="st2" d="M286.5,107l31,32h-22l-0.5,0.5V373h117V140.5l99,98l1,21l-1,1l-1,27l-5,28l-13,40c-15.8,35.9-37.3,66-64.5,90.5
	c-20.6,18.7-44.6,34.1-72,46l-32,11l-23,5l-21,2l-1,1l-25,1l-1-1h-14L101,373.5l3.5-0.5L286,405L286.5,107z"/>
<path class="st3" d="M0,0l233,0.5L217.5,2l-25,5c-19.2,5.1-36.9,11.8-53,20C109.8,42.6,84.3,62.4,63,86.5
	c-17.4,19.6-31.7,42.3-43,68l-7,18l-7,24l-4,21L0.5,233L0,0z"/>
<path class="st3" d="M279.5,0H512v232.5h-1l-1-15l-5-25c-5.1-19.2-11.8-36.9-20-53c-15.6-29.7-35.4-55.2-59.5-76.5
	c-19.6-17.4-42.3-31.7-68-43l-38-13l-25-5l-15-1V0z"/>
<path class="st3" d="M0.5,279L2,294.5l5,25c5.1,19.2,11.8,36.9,20,53c15.6,29.7,35.4,55.2,59.5,76.5c19.6,17.4,42.3,31.7,68,43l18,7
	l24,7l21,4l15.5,1.5L0,512L0.5,279z"/>
<path class="st3" d="M511.5,279l0.5,233l-233-0.5l21.5-2.5l23-5c17.7-4.9,34.1-11.3,49-19c29.9-15.5,55.4-35.3,76.5-59.5
	c17.9-20.1,32.6-43.4,44-70l13-40l4-21L511.5,279z"/>
<path class="st4" d="M233.5,0h45l1,1l15,1l25,5l38,13c36.5,16.1,67,38.3,91.5,66.5c17.4,19.6,31.7,42.3,43,68l7,18l7,24l4,21l2,21
	L411.5,139h-93l-32-32h-3L100,139v233.5l139,139l-5.5,0.5l-1-1l-21-2l-33-8l-39-16c-29.7-15.6-55.2-35.4-76.5-59.5
	c-22.7-25.3-40-56-52-92l-5-18l-5-28v-8l-1-1v-45l1-1l2-21l8-33l16-39C42.6,109.8,62.4,84.3,86.5,63c19.6-17.4,42.3-31.7,68-43
	l38-13l25-5l15-1L233.5,0z"/>
<path class="st5" d="M295,167h99.5l0.5,0.5V189h-99.5l-0.5-0.5V167z"/>
<path class="st5" d="M295,206h99.5l0.5,0.5V228h-99.5l-0.5-0.5V206z"/>
<path class="st5" d="M141,214h16.5l0.5,3.5l10,43l1,9l1.5,2.5l14.5-55.5l1.5-1.5h16l0.5,3.5l13.5,52.5l4.5-13.5l10-42l1.5-1.5h16
	l0.5,1.5l-27,81l-1.5,1.5h-12l-0.5-2.5L193.5,238L179,298h-13.5l-0.5-2.5L141,214z"/>
<path class="st5" d="M295,245h99.5l0.5,0.5V267h-99.5l-0.5-0.5V245z"/>
<path class="st5" d="M295,284h99.5l0.5,0.5V306h-99.5l-0.5-0.5V284z"/>
<path class="st5" d="M295,323h99.5l0.5,0.5V345h-99.5l-0.5-0.5V323z"/>
<path class="st4" d="M448.5,425l-2,3L448.5,425z"/>
<path class="st4" d="M426.5,447l-1,2L426.5,447z"/>
</svg>
